{
	"asset": {
		"generator": "Unity 2021.3.8f1c1",
		"extras": {
			"exporterVersion" : "2.2.1"
		},
		"version": "2.0"
	},
	"accessors": [
		{
			"bufferView": 2,
			"byteOffset": 0,
			"componentType": 5126,
			"count": 221,
			"max": [ 0.9920819, 1.379032, 0.06138323 ],
			"min": [ -0.9920819, -1.379032, -0.06138323 ],
			"type": "VEC3"
		},
		{
			"bufferView": 2,
			"byteOffset": 2652,
			"componentType": 5126,
			"count": 221,
			"max": [ 1, 1, 1 ],
			"min": [ -1, -1, -1 ],
			"type": "VEC3"
		},
		{
			"bufferView": 1,
			"byteOffset": 0,
			"componentType": 5126,
			"count": 221,
			"max": [ 1, 1 ],
			"min": [ -2.000024, 0 ],
			"type": "VEC2"
		},
		{
			"bufferView": 3,
			"byteOffset": 0,
			"componentType": 5126,
			"count": 221,
			"max": [ 1, 1, 1, 1 ],
			"min": [ -1, -1, 0, -1 ],
			"type": "VEC4"
		},
		{
			"bufferView": 0,
			"byteOffset": 0,
			"componentType": 5123,
			"count": 624,
			"max": [ 220 ],
			"min": [ 0 ],
			"type": "SCALAR"
		}
	],
	"buffers": [
		{
			"byteLength": 11856,
			"uri": "icon.bin"
		}
	],
	"bufferViews": [
		{
			"buffer": 0,
			"byteLength": 1248,
			"target": 34963,
			"byteOffset": 10608
		},
		{
			"buffer": 0,
			"byteLength": 1768,
			"target": 34962,
			"byteStride": 8,
			"byteOffset": 0
		},
		{
			"buffer": 0,
			"byteLength": 5304,
			"target": 34962,
			"byteStride": 12,
			"byteOffset": 1768
		},
		{
			"buffer": 0,
			"byteLength": 3536,
			"target": 34962,
			"byteStride": 16,
			"byteOffset": 7072
		}
	],
	"materials": [
		{
			"pbrMetallicRoughness": {
				"baseColorFactor": [0, 0.9468538, 1, 1],
				"metallicFactor": 0,
				"roughnessFactor": 0.4343146
			},
			"emissiveFactor": [0, 0, 0],
			"doubleSided": false,
			"name": ".1"
		}
	],
	"meshes": [
		{
			"name": "mesh_icon_2_2_35006icon",
			"primitives": [
				{
					"attributes": {
						"POSITION": 0,
						"NORMAL": 1,
						"TEXCOORD_0": 2,
						"TANGENT": 3
					},
					"indices": 4,
					"material": 0,
					"mode": 4
				}
			]
		}
	],
	"nodes": [
		{
			"name": "UnityGlTF_root",
			"children": [
				1
			]
		},
		{
			"name": "node_icon_-8938",
			"mesh": 0,
			"matrix": [1, 0, 0, 0, 0, 1, 0, 0, 0, 0, 1, 0, 0, 0, 0, 1]
		}
	],
	"scenes": [
		{
			"name":"defaultScene",
			"nodes": [
				0
			]
		}
	],
	"scene": 0
}