{
	"asset": {
		"generator": "Unity 2018.4.2f1",
		"extras": {
			"exporterVersion" : "2.2.1"
		},
		"version": "2.0"
	},
	"accessors": [
		{
			"bufferView": 2,
			"byteOffset": 0,
			"componentType": 5126,
			"count": 11724,
			"max": [ 10.14127, 4.350857, 0.1022352 ],
			"min": [ -8.403826, 0.5981972, -3.728892 ],
			"type": "VEC3"
		},
		{
			"bufferView": 2,
			"byteOffset": 140688,
			"componentType": 5126,
			"count": 11724,
			"max": [ 0.9995039, 1, 1 ],
			"min": [ -0.9994954, -1, -1 ],
			"type": "VEC3"
		},
		{
			"bufferView": 1,
			"byteOffset": 0,
			"componentType": 5126,
			"count": 11724,
			"max": [ 3, 1 ],
			"min": [ 0, -0.97561 ],
			"type": "VEC2"
		},
		{
			"bufferView": 3,
			"byteOffset": 0,
			"componentType": 5126,
			"count": 11724,
			"max": [ 1, 0.9997959, 1, 1 ],
			"min": [ -0.9993175, -0.3599077, -1, -1 ],
			"type": "VEC4"
		},
		{
			"bufferView": 0,
			"byteOffset": 0,
			"componentType": 5123,
			"count": 1188,
			"max": [ 737 ],
			"min": [ 0 ],
			"type": "SCALAR"
		},
		{
			"bufferView": 0,
			"byteOffset": 2376,
			"componentType": 5123,
			"count": 16836,
			"max": [ 11723 ],
			"min": [ 738 ],
			"type": "SCALAR"
		},
		{
			"bufferView": 2,
			"byteOffset": 281376,
			"componentType": 5126,
			"count": 24,
			"max": [ 0.4116779, 0.122532, 1.749084 ],
			"min": [ -0.4116779, -0.122532, -1.749084 ],
			"type": "VEC3"
		},
		{
			"bufferView": 2,
			"byteOffset": 281664,
			"componentType": 5126,
			"count": 24,
			"max": [ 0.9995039, 0.9975346, 0.9998181 ],
			"min": [ -0.9994954, -0.9975328, -0.9998181 ],
			"type": "VEC3"
		},
		{
			"bufferView": 1,
			"byteOffset": 93792,
			"componentType": 5126,
			"count": 24,
			"max": [ 0.875, 1 ],
			"min": [ 0.125, 0 ],
			"type": "VEC2"
		},
		{
			"bufferView": 3,
			"byteOffset": 187584,
			"componentType": 5126,
			"count": 24,
			"max": [ 0.9975593, 0.9996724, 0.01984805, 1 ],
			"min": [ -0.9975616, -0.06740853, -0.0198484, 1 ],
			"type": "VEC4"
		},
		{
			"bufferView": 0,
			"byteOffset": 36048,
			"componentType": 5123,
			"count": 36,
			"max": [ 23 ],
			"min": [ 0 ],
			"type": "SCALAR"
		},
		{
			"bufferView": 2,
			"byteOffset": 281952,
			"componentType": 5126,
			"count": 24,
			"max": [ 0.5, 0.5, 0.5 ],
			"min": [ -0.5, -0.5, -0.5 ],
			"type": "VEC3"
		},
		{
			"bufferView": 2,
			"byteOffset": 282240,
			"componentType": 5126,
			"count": 24,
			"max": [ 1, 1, 1 ],
			"min": [ -1, -1, -1 ],
			"type": "VEC3"
		},
		{
			"bufferView": 1,
			"byteOffset": 93984,
			"componentType": 5126,
			"count": 24,
			"max": [ 1, 1 ],
			"min": [ 0, 0 ],
			"type": "VEC2"
		},
		{
			"bufferView": 1,
			"byteOffset": 94176,
			"componentType": 5126,
			"count": 24,
			"max": [ 0.9966581, 0.6528358 ],
			"min": [ 0.004055766, 0.004055766 ],
			"type": "VEC2"
		},
		{
			"bufferView": 3,
			"byteOffset": 187968,
			"componentType": 5126,
			"count": 24,
			"max": [ 0, 0, 1, 1 ],
			"min": [ -1, 0, -1, 1 ],
			"type": "VEC4"
		},
		{
			"bufferView": 0,
			"byteOffset": 36120,
			"componentType": 5123,
			"count": 36,
			"max": [ 23 ],
			"min": [ 0 ],
			"type": "SCALAR"
		}
	],
	"buffers": [
		{
			"byteLength": 601440,
			"uri": "bridge002.bin"
		}
	],
	"bufferViews": [
		{
			"buffer": 0,
			"byteLength": 36192,
			"target": 34963,
			"byteOffset": 565248
		},
		{
			"buffer": 0,
			"byteLength": 94368,
			"target": 34962,
			"byteStride": 8,
			"byteOffset": 0
		},
		{
			"buffer": 0,
			"byteLength": 282528,
			"target": 34962,
			"byteStride": 12,
			"byteOffset": 94368
		},
		{
			"buffer": 0,
			"byteLength": 188352,
			"target": 34962,
			"byteStride": 16,
			"byteOffset": 376896
		}
	],
	"materials": [
		{
			"pbrMetallicRoughness": {
				"baseColorFactor": [0.89, 0.595, 0.34, 1],
				"metallicFactor": 0,
				"roughnessFactor": 1
			},
			"emissiveFactor": [0, 0, 0],
			"doubleSided": false,
			"name": "_Bridge1SG3"
		},
		{
			"pbrMetallicRoughness": {
				"baseColorFactor": [0.57, 0.34, 0.16, 1],
				"metallicFactor": 0,
				"roughnessFactor": 1
			},
			"emissiveFactor": [0, 0, 0],
			"doubleSided": false,
			"name": "_Bridge1SG1"
		},
		{
			"pbrMetallicRoughness": {
				"baseColorFactor": [1, 1, 1, 1],
				"metallicFactor": 0,
				"roughnessFactor": 0.5
			},
			"emissiveFactor": [0, 0, 0],
			"doubleSided": false,
			"name": "Default-Material"
		}
	],
	"meshes": [
		{
			"name": "mesh__Bridge1_18344_Bridge1",
			"primitives": [
				{
					"attributes": {
						"POSITION": 0,
						"NORMAL": 1,
						"TEXCOORD_0": 2,
						"TANGENT": 3
					},
					"indices": 4,
					"material": 0,
					"mode": 4
				},
				{
					"attributes": {
						"POSITION": 0,
						"NORMAL": 1,
						"TEXCOORD_0": 2,
						"TANGENT": 3
					},
					"indices": 5,
					"material": 1,
					"mode": 4
				}
			]
		},
		{
			"name": "mesh__Bridge1_1_18346_Bridge1_1",
			"primitives": [
				{
					"attributes": {
						"POSITION": 6,
						"NORMAL": 7,
						"TEXCOORD_0": 8,
						"TANGENT": 9
					},
					"indices": 10,
					"material": 0,
					"mode": 4
				}
			]
		},
		{
			"name": "mesh_Cube_680collider (3)",
			"primitives": [
				{
					"attributes": {
						"POSITION": 11,
						"NORMAL": 12,
						"TEXCOORD_0": 13,
						"TEXCOORD_1": 14,
						"TANGENT": 15
					},
					"indices": 16,
					"material": 2,
					"mode": 4
				}
			]
		}
	],
	"nodes": [
		{
			"name": "UnityGlTF_root",
			"children": [
				1
			]
		},
		{
			"name": "node_bridge002_-474112",
			"children": [
				4,
				2,
				3
			],
			"matrix": [1, 0, 0, 0, 0, 1, 0, 0, 0, 0, 1, 0, 0, 0, 0, 1]
		},
		{
			"name": "node__Bridge1_-481052",
			"mesh": 0,
			"translation": [ -0.5, -0.26, 0.964],
			"scale": [ 0.53787, 0.53787, 0.53787]
		},
		{
			"name": "node__Bridge1_1_-486692",
			"mesh": 1,
			"translation": [ 0.837, 0.163, 0.034],
			"scale": [ 0.53787, 0.53787, 0.53787],
			"rotation": [0.003193325, 0, 0, -0.9999949]
		},
		{
			"name": "node_collider (3)_-511044",
			"mesh": 2,
			"scale": [ 0.01, 0.01, 0.01]
		}
	],
	"scenes": [
		{
			"name":"defaultScene",
			"nodes": [
				0
			]
		}
	],
	"scene": 0
}