{
	"asset": {
		"generator": "Unity 2018.4.2f1",
		"extras": {
			"exporterVersion" : "2.2.1"
		},
		"version": "2.0"
	},
	"accessors": [
		{
			"bufferView": 2,
			"byteOffset": 0,
			"componentType": 5126,
			"count": 735,
			"max": [ -132.9358, 7.14461, 61.40318 ],
			"min": [ -146.9461, -1.226099, 26.96279 ],
			"type": "VEC3"
		},
		{
			"bufferView": 2,
			"byteOffset": 8820,
			"componentType": 5126,
			"count": 735,
			"max": [ 0.9998771, 0.9998022, 0.9845257 ],
			"min": [ -0.9949675, -0.9979024, -0.9910582 ],
			"type": "VEC3"
		},
		{
			"bufferView": 1,
			"byteOffset": 0,
			"componentType": 5126,
			"count": 735,
			"max": [ 0.485352, 0.01025403 ],
			"min": [ 0.485352, 0.01025403 ],
			"type": "VEC2"
		},
		{
			"bufferView": 3,
			"byteOffset": 0,
			"componentType": 5126,
			"count": 735,
			"max": [ 1, 0, 0, 1 ],
			"min": [ 1, 0, 0, 1 ],
			"type": "VEC4"
		},
		{
			"bufferView": 0,
			"byteOffset": 0,
			"componentType": 5123,
			"count": 756,
			"max": [ 734 ],
			"min": [ 0 ],
			"type": "SCALAR"
		},
		{
			"bufferView": 2,
			"byteOffset": 17640,
			"componentType": 5126,
			"count": 1371,
			"max": [ 61.86493, 8.928776, 67.98057 ],
			"min": [ 35.19317, -2.137091, 35.60955 ],
			"type": "VEC3"
		},
		{
			"bufferView": 2,
			"byteOffset": 34092,
			"componentType": 5126,
			"count": 1371,
			"max": [ 0.9960764, 0.9997668, 0.9976744 ],
			"min": [ -0.9928444, -0.9997143, -0.982814 ],
			"type": "VEC3"
		},
		{
			"bufferView": 1,
			"byteOffset": 5880,
			"componentType": 5126,
			"count": 1371,
			"max": [ 0.485352, 0.01025403 ],
			"min": [ 0.485352, 0.01025403 ],
			"type": "VEC2"
		},
		{
			"bufferView": 3,
			"byteOffset": 11760,
			"componentType": 5126,
			"count": 1371,
			"max": [ 1, 0, 0, 1 ],
			"min": [ 1, 0, 0, 1 ],
			"type": "VEC4"
		},
		{
			"bufferView": 0,
			"byteOffset": 1512,
			"componentType": 5123,
			"count": 1470,
			"max": [ 1370 ],
			"min": [ 0 ],
			"type": "SCALAR"
		},
		{
			"bufferView": 2,
			"byteOffset": 50544,
			"componentType": 5126,
			"count": 560,
			"max": [ 25.19595, 9.683413, 90.14684 ],
			"min": [ 0.9310541, 2.191591, 77.0667 ],
			"type": "VEC3"
		},
		{
			"bufferView": 2,
			"byteOffset": 57264,
			"componentType": 5126,
			"count": 560,
			"max": [ 0.9671843, 0.9961407, 0.9927782 ],
			"min": [ -0.9729955, -0.9997521, -0.9816737 ],
			"type": "VEC3"
		},
		{
			"bufferView": 1,
			"byteOffset": 16848,
			"componentType": 5126,
			"count": 560,
			"max": [ 0.482666, 0.01074207 ],
			"min": [ 0.482666, 0.01074207 ],
			"type": "VEC2"
		},
		{
			"bufferView": 3,
			"byteOffset": 33696,
			"componentType": 5126,
			"count": 560,
			"max": [ 1, 0, 0, 1 ],
			"min": [ 1, 0, 0, 1 ],
			"type": "VEC4"
		},
		{
			"bufferView": 0,
			"byteOffset": 4452,
			"componentType": 5123,
			"count": 600,
			"max": [ 559 ],
			"min": [ 0 ],
			"type": "SCALAR"
		},
		{
			"bufferView": 2,
			"byteOffset": 63984,
			"componentType": 5126,
			"count": 560,
			"max": [ -65.40864, 11.32639, 114.6167 ],
			"min": [ -121.1966, -4.731166, 94.75806 ],
			"type": "VEC3"
		},
		{
			"bufferView": 2,
			"byteOffset": 70704,
			"componentType": 5126,
			"count": 560,
			"max": [ 0.9199762, 0.9961408, 0.9927323 ],
			"min": [ -0.9665229, -0.9997521, -0.9993989 ],
			"type": "VEC3"
		},
		{
			"bufferView": 1,
			"byteOffset": 21328,
			"componentType": 5126,
			"count": 560,
			"max": [ 0.482666, 0.01074207 ],
			"min": [ 0.482666, 0.01074207 ],
			"type": "VEC2"
		},
		{
			"bufferView": 3,
			"byteOffset": 42656,
			"componentType": 5126,
			"count": 560,
			"max": [ 1, 0, 0, 1 ],
			"min": [ 1, 0, 0, 1 ],
			"type": "VEC4"
		},
		{
			"bufferView": 0,
			"byteOffset": 5652,
			"componentType": 5123,
			"count": 600,
			"max": [ 559 ],
			"min": [ 0 ],
			"type": "SCALAR"
		},
		{
			"bufferView": 2,
			"byteOffset": 77424,
			"componentType": 5126,
			"count": 829,
			"max": [ -24.3649, 2.093414, 105.0096 ],
			"min": [ -52.25093, -12.26421, 88.68918 ],
			"type": "VEC3"
		},
		{
			"bufferView": 2,
			"byteOffset": 87372,
			"componentType": 5126,
			"count": 829,
			"max": [ 0.9638579, 0.9923761, 0.9838209 ],
			"min": [ -0.929723, -0.9959401, -0.9928422 ],
			"type": "VEC3"
		},
		{
			"bufferView": 1,
			"byteOffset": 25808,
			"componentType": 5126,
			"count": 829,
			"max": [ 0.482666, 0.01074207 ],
			"min": [ 0.482666, 0.01074207 ],
			"type": "VEC2"
		},
		{
			"bufferView": 3,
			"byteOffset": 51616,
			"componentType": 5126,
			"count": 829,
			"max": [ 1, 0, 0, 1 ],
			"min": [ 1, 0, 0, 1 ],
			"type": "VEC4"
		},
		{
			"bufferView": 0,
			"byteOffset": 6852,
			"componentType": 5123,
			"count": 900,
			"max": [ 828 ],
			"min": [ 0 ],
			"type": "SCALAR"
		},
		{
			"bufferView": 2,
			"byteOffset": 97320,
			"componentType": 5126,
			"count": 803,
			"max": [ -135.1185, 20.21088, 9.807436 ],
			"min": [ -153.6975, 2.784492, -26.89254 ],
			"type": "VEC3"
		},
		{
			"bufferView": 2,
			"byteOffset": 106956,
			"componentType": 5126,
			"count": 803,
			"max": [ 0.9979024, 0.9972109, 0.9632117 ],
			"min": [ -0.9585066, -0.997997, -0.9626952 ],
			"type": "VEC3"
		},
		{
			"bufferView": 1,
			"byteOffset": 32440,
			"componentType": 5126,
			"count": 803,
			"max": [ 0.482666, 0.01074207 ],
			"min": [ 0.482666, 0.01074207 ],
			"type": "VEC2"
		},
		{
			"bufferView": 3,
			"byteOffset": 64880,
			"componentType": 5126,
			"count": 803,
			"max": [ 1, 0, 0, 1 ],
			"min": [ 1, 0, 0, 1 ],
			"type": "VEC4"
		},
		{
			"bufferView": 0,
			"byteOffset": 8652,
			"componentType": 5123,
			"count": 900,
			"max": [ 802 ],
			"min": [ 0 ],
			"type": "SCALAR"
		},
		{
			"bufferView": 2,
			"byteOffset": 116592,
			"componentType": 5126,
			"count": 735,
			"max": [ 0.5705736, 0.8780407, -50.72458 ],
			"min": [ -44.56179, -9.768307, -68.51952 ],
			"type": "VEC3"
		},
		{
			"bufferView": 2,
			"byteOffset": 125412,
			"componentType": 5126,
			"count": 735,
			"max": [ 0.8852084, 0.9998022, 0.9880226 ],
			"min": [ -0.948263, -0.9979024, -0.9996614 ],
			"type": "VEC3"
		},
		{
			"bufferView": 1,
			"byteOffset": 38864,
			"componentType": 5126,
			"count": 735,
			"max": [ 0.485352, 0.01025403 ],
			"min": [ 0.485352, 0.01025403 ],
			"type": "VEC2"
		},
		{
			"bufferView": 3,
			"byteOffset": 77728,
			"componentType": 5126,
			"count": 735,
			"max": [ 1, 0, 0, 1 ],
			"min": [ 1, 0, 0, 1 ],
			"type": "VEC4"
		},
		{
			"bufferView": 0,
			"byteOffset": 10452,
			"componentType": 5123,
			"count": 756,
			"max": [ 734 ],
			"min": [ 0 ],
			"type": "SCALAR"
		},
		{
			"bufferView": 2,
			"byteOffset": 134232,
			"componentType": 5126,
			"count": 796,
			"max": [ -116.4262, -8.383145, 91.35029 ],
			"min": [ -140.1541, -17.64879, 60.16644 ],
			"type": "VEC3"
		},
		{
			"bufferView": 2,
			"byteOffset": 143784,
			"componentType": 5126,
			"count": 796,
			"max": [ 0.9989671, 0.9986089, 0.9535594 ],
			"min": [ -0.99809, -0.998082, -0.9726188 ],
			"type": "VEC3"
		},
		{
			"bufferView": 1,
			"byteOffset": 44744,
			"componentType": 5126,
			"count": 796,
			"max": [ 0.485352, 0.01025403 ],
			"min": [ 0.485352, 0.01025403 ],
			"type": "VEC2"
		},
		{
			"bufferView": 3,
			"byteOffset": 89488,
			"componentType": 5126,
			"count": 796,
			"max": [ 1, 0, 0, 1 ],
			"min": [ 1, 0, 0, 1 ],
			"type": "VEC4"
		},
		{
			"bufferView": 0,
			"byteOffset": 11964,
			"componentType": 5123,
			"count": 840,
			"max": [ 795 ],
			"min": [ 0 ],
			"type": "SCALAR"
		},
		{
			"bufferView": 2,
			"byteOffset": 153336,
			"componentType": 5126,
			"count": 796,
			"max": [ -63.61091, 8.494119, 17.03309 ],
			"min": [ -122.0303, -13.44705, -53.54628 ],
			"type": "VEC3"
		},
		{
			"bufferView": 2,
			"byteOffset": 162888,
			"componentType": 5126,
			"count": 796,
			"max": [ 0.9909192, 0.9986089, 0.9925417 ],
			"min": [ -0.9886801, -0.998082, -0.9775552 ],
			"type": "VEC3"
		},
		{
			"bufferView": 1,
			"byteOffset": 51112,
			"componentType": 5126,
			"count": 796,
			"max": [ 0.485352, 0.01025403 ],
			"min": [ 0.485352, 0.01025403 ],
			"type": "VEC2"
		},
		{
			"bufferView": 3,
			"byteOffset": 102224,
			"componentType": 5126,
			"count": 796,
			"max": [ 1, 0, 0, 1 ],
			"min": [ 1, 0, 0, 1 ],
			"type": "VEC4"
		},
		{
			"bufferView": 0,
			"byteOffset": 13644,
			"componentType": 5123,
			"count": 840,
			"max": [ 795 ],
			"min": [ 0 ],
			"type": "SCALAR"
		},
		{
			"bufferView": 2,
			"byteOffset": 172440,
			"componentType": 5126,
			"count": 735,
			"max": [ 71.61428, 7.14461, 7.736311 ],
			"min": [ 58.59874, -1.226099, -27.47403 ],
			"type": "VEC3"
		},
		{
			"bufferView": 2,
			"byteOffset": 181260,
			"componentType": 5126,
			"count": 735,
			"max": [ 0.9956326, 0.9998022, 0.9635988 ],
			"min": [ -0.9985963, -0.9979024, -0.9915358 ],
			"type": "VEC3"
		},
		{
			"bufferView": 1,
			"byteOffset": 57480,
			"componentType": 5126,
			"count": 735,
			"max": [ 0.485352, 0.01025403 ],
			"min": [ 0.485352, 0.01025403 ],
			"type": "VEC2"
		},
		{
			"bufferView": 3,
			"byteOffset": 114960,
			"componentType": 5126,
			"count": 735,
			"max": [ 1, 0, 0, 1 ],
			"min": [ 1, 0, 0, 1 ],
			"type": "VEC4"
		},
		{
			"bufferView": 0,
			"byteOffset": 15324,
			"componentType": 5123,
			"count": 756,
			"max": [ 734 ],
			"min": [ 0 ],
			"type": "SCALAR"
		},
		{
			"bufferView": 2,
			"byteOffset": 190080,
			"componentType": 5126,
			"count": 24,
			"max": [ 0.5, 0.5, 0.5 ],
			"min": [ -0.5, -0.5, -0.5 ],
			"type": "VEC3"
		},
		{
			"bufferView": 2,
			"byteOffset": 190368,
			"componentType": 5126,
			"count": 24,
			"max": [ 1, 1, 1 ],
			"min": [ -1, -1, -1 ],
			"type": "VEC3"
		},
		{
			"bufferView": 1,
			"byteOffset": 63360,
			"componentType": 5126,
			"count": 24,
			"max": [ 1, 1 ],
			"min": [ 0, 0 ],
			"type": "VEC2"
		},
		{
			"bufferView": 1,
			"byteOffset": 63552,
			"componentType": 5126,
			"count": 24,
			"max": [ 0.9966581, 0.6528358 ],
			"min": [ 0.004055766, 0.004055766 ],
			"type": "VEC2"
		},
		{
			"bufferView": 3,
			"byteOffset": 126720,
			"componentType": 5126,
			"count": 24,
			"max": [ 0, 0, 1, 1 ],
			"min": [ -1, 0, -1, 1 ],
			"type": "VEC4"
		},
		{
			"bufferView": 0,
			"byteOffset": 16836,
			"componentType": 5123,
			"count": 36,
			"max": [ 23 ],
			"min": [ 0 ],
			"type": "SCALAR"
		}
	],
	"buffers": [
		{
			"byteLength": 398412,
			"uri": "cloud.bin"
		}
	],
	"bufferViews": [
		{
			"buffer": 0,
			"byteLength": 16908,
			"target": 34963,
			"byteOffset": 381504
		},
		{
			"buffer": 0,
			"byteLength": 63744,
			"target": 34962,
			"byteStride": 8,
			"byteOffset": 0
		},
		{
			"buffer": 0,
			"byteLength": 190656,
			"target": 34962,
			"byteStride": 12,
			"byteOffset": 63744
		},
		{
			"buffer": 0,
			"byteLength": 127104,
			"target": 34962,
			"byteStride": 16,
			"byteOffset": 254400
		}
	],
	"materials": [
		{
			"pbrMetallicRoughness": {
				"baseColorFactor": [1, 1, 1, 1],
				"metallicFactor": 0,
				"roughnessFactor": 1
			},
			"emissiveFactor": [0, 0, 0],
			"doubleSided": false,
			"name": "FrontColor"
		},
		{
			"pbrMetallicRoughness": {
				"baseColorFactor": [1, 1, 1, 1],
				"metallicFactor": 0,
				"roughnessFactor": 0.5
			},
			"emissiveFactor": [0, 0, 0],
			"doubleSided": false,
			"name": "Default-Material"
		}
	],
	"meshes": [
		{
			"name": "mesh___cloudSM_Generic_Cloud_02_2_44760__cloudSM_Generic_Cloud_02_2",
			"primitives": [
				{
					"attributes": {
						"POSITION": 0,
						"NORMAL": 1,
						"TEXCOORD_0": 2,
						"TANGENT": 3
					},
					"indices": 4,
					"material": 0,
					"mode": 4
				}
			]
		},
		{
			"name": "mesh___cloudSM_Generic_Cloud_03_44770__cloudSM_Generic_Cloud_03",
			"primitives": [
				{
					"attributes": {
						"POSITION": 5,
						"NORMAL": 6,
						"TEXCOORD_0": 7,
						"TANGENT": 8
					},
					"indices": 9,
					"material": 0,
					"mode": 4
				}
			]
		},
		{
			"name": "mesh___cloudSM_Generic_Cloud_04_44768__cloudSM_Generic_Cloud_04",
			"primitives": [
				{
					"attributes": {
						"POSITION": 10,
						"NORMAL": 11,
						"TEXCOORD_0": 12,
						"TANGENT": 13
					},
					"indices": 14,
					"material": 0,
					"mode": 4
				}
			]
		},
		{
			"name": "mesh___cloudSM_Generic_Cloud_04_1_44764__cloudSM_Generic_Cloud_04_1",
			"primitives": [
				{
					"attributes": {
						"POSITION": 15,
						"NORMAL": 16,
						"TEXCOORD_0": 17,
						"TANGENT": 18
					},
					"indices": 19,
					"material": 0,
					"mode": 4
				}
			]
		},
		{
			"name": "mesh___cloudSM_Generic_Cloud_05_44766__cloudSM_Generic_Cloud_05",
			"primitives": [
				{
					"attributes": {
						"POSITION": 20,
						"NORMAL": 21,
						"TEXCOORD_0": 22,
						"TANGENT": 23
					},
					"indices": 24,
					"material": 0,
					"mode": 4
				}
			]
		},
		{
			"name": "mesh___cloudSM_Generic_Cloud_05_1_44758__cloudSM_Generic_Cloud_05_1",
			"primitives": [
				{
					"attributes": {
						"POSITION": 25,
						"NORMAL": 26,
						"TEXCOORD_0": 27,
						"TANGENT": 28
					},
					"indices": 29,
					"material": 0,
					"mode": 4
				}
			]
		},
		{
			"name": "mesh___SM_Generic_Cloud_02_1cloud_44754__SM_Generic_Cloud_02_1cloud",
			"primitives": [
				{
					"attributes": {
						"POSITION": 30,
						"NORMAL": 31,
						"TEXCOORD_0": 32,
						"TANGENT": 33
					},
					"indices": 34,
					"material": 0,
					"mode": 4
				}
			]
		},
		{
			"name": "mesh___cloudSM_Generic_Cloud_01_44762__cloudSM_Generic_Cloud_01",
			"primitives": [
				{
					"attributes": {
						"POSITION": 35,
						"NORMAL": 36,
						"TEXCOORD_0": 37,
						"TANGENT": 38
					},
					"indices": 39,
					"material": 0,
					"mode": 4
				}
			]
		},
		{
			"name": "mesh___cloudSM_Generic_Cloud_01_1_44756__cloudSM_Generic_Cloud_01_1",
			"primitives": [
				{
					"attributes": {
						"POSITION": 40,
						"NORMAL": 41,
						"TEXCOORD_0": 42,
						"TANGENT": 43
					},
					"indices": 44,
					"material": 0,
					"mode": 4
				}
			]
		},
		{
			"name": "mesh___cloudSM_Generic_Cloud_02_44772__cloudSM_Generic_Cloud_02",
			"primitives": [
				{
					"attributes": {
						"POSITION": 45,
						"NORMAL": 46,
						"TEXCOORD_0": 47,
						"TANGENT": 48
					},
					"indices": 49,
					"material": 0,
					"mode": 4
				}
			]
		},
		{
			"name": "mesh_Cube_680collider",
			"primitives": [
				{
					"attributes": {
						"POSITION": 50,
						"NORMAL": 51,
						"TEXCOORD_0": 52,
						"TEXCOORD_1": 53,
						"TANGENT": 54
					},
					"indices": 55,
					"material": 1,
					"mode": 4
				}
			]
		}
	],
	"nodes": [
		{
			"name": "UnityGlTF_root",
			"children": [
				11
			]
		},
		{
			"name": "node___cloudSM_Generic_Cloud_02_2_-100046",
			"mesh": 0,
			"translation": [ -45.33205, -30.60908, -25.41772],
			"rotation": [0.08046494, -0.4732296, 0.1874258, -0.857001]
		},
		{
			"name": "node___cloudSM_Generic_Cloud_03_-100048",
			"mesh": 1,
			"translation": [ 69.66217, -0.08056641, 8.652224],
			"rotation": [0, 0.2209534, 0, -0.9752844]
		},
		{
			"name": "node___cloudSM_Generic_Cloud_04_-100050",
			"mesh": 2,
			"translation": [ 29.72674, -0.08056641, -0.7240453]
		},
		{
			"name": "node___cloudSM_Generic_Cloud_04_1_-100052",
			"mesh": 3,
			"translation": [ 27.24848, 12.91365, -15.97046],
			"rotation": [0, -0.2206916, 0, -0.9753437]
		},
		{
			"name": "node___cloudSM_Generic_Cloud_05_-100054",
			"mesh": 4,
			"translation": [ -56.56424, -95.17393, 86.23113],
			"rotation": [0.6050377, 0.2791116, 0.2390954, -0.7062998]
		},
		{
			"name": "node___cloudSM_Generic_Cloud_05_1_-100056",
			"mesh": 5,
			"translation": [ 38.65686, 9.137558, -29.72475],
			"rotation": [-0.1904459, 0, 0, -0.9816977]
		},
		{
			"name": "node___SM_Generic_Cloud_02_1cloud_-100060",
			"mesh": 6,
			"translation": [ 48.19234, -12.35003, -24.91674],
			"rotation": [0, 0.113002, 0, -0.9935948]
		},
		{
			"name": "node___cloudSM_Generic_Cloud_01_-100040",
			"mesh": 7,
			"translation": [ -8.56325, -33.43054, -21.86223],
			"rotation": [0, 0, 0.1293678, -0.9915967]
		},
		{
			"name": "node___cloudSM_Generic_Cloud_01_1_-100042",
			"mesh": 8,
			"translation": [ 28.86453, 11.93265, -23.75883],
			"rotation": [0, 0.1841401, 0, -0.9829]
		},
		{
			"name": "node___cloudSM_Generic_Cloud_02_-100044",
			"mesh": 9,
			"translation": [ 60.30436, -0.08056641, -14.46305],
			"rotation": [0, -0.3404714, 0, -0.9402549]
		},
		{
			"name": "node_cloud_51772",
			"children": [
				8,
				9,
				10,
				1,
				2,
				3,
				4,
				5,
				6,
				7,
				12
			],
			"matrix": [1, 0, 0, 0, 0, 1, 0, 0, 0, 0, 1, 0, 0, 0, 0, 1]
		},
		{
			"name": "node_collider_51948",
			"mesh": 10,
			"scale": [ 0.01, 0.01, 0.01]
		}
	],
	"scenes": [
		{
			"name":"defaultScene",
			"nodes": [
				0
			]
		}
	],
	"scene": 0
}