{
	"asset": {
		"generator": "Unity 2021.3.8f1c1",
		"extras": {
			"exporterVersion" : "2.2.1"
		},
		"version": "2.0"
	},
	"accessors": [
		{
			"bufferView": 2,
			"byteOffset": 0,
			"componentType": 5126,
			"count": 88,
			"max": [ 0.5000001, 1, 0.5000002 ],
			"min": [ -0.5, -1, -0.5000001 ],
			"type": "VEC3"
		},
		{
			"bufferView": 2,
			"byteOffset": 1056,
			"componentType": 5126,
			"count": 88,
			"max": [ 1, 1, 1 ],
			"min": [ -1, -1, -1 ],
			"type": "VEC3"
		},
		{
			"bufferView": 1,
			"byteOffset": 0,
			"componentType": 5126,
			"count": 88,
			"max": [ 0.9997491, 0.9994308 ],
			"min": [ 0.0006936856, 0.0004537381 ],
			"type": "VEC2"
		},
		{
			"bufferView": 1,
			"byteOffset": 704,
			"componentType": 5126,
			"count": 88,
			"max": [ 0.9971684, 0.9978806 ],
			"min": [ 0.004360619, 0.002600181 ],
			"type": "VEC2"
		},
		{
			"bufferView": 3,
			"byteOffset": 0,
			"componentType": 5126,
			"count": 88,
			"max": [ 1, 0, 1, 1 ],
			"min": [ -1, 0, -1, 1 ],
			"type": "VEC4"
		},
		{
			"bufferView": 0,
			"byteOffset": 0,
			"componentType": 5123,
			"count": 240,
			"max": [ 87 ],
			"min": [ 0 ],
			"type": "SCALAR"
		},
		{
			"bufferView": 2,
			"byteOffset": 2112,
			"componentType": 5126,
			"count": 24,
			"max": [ 0.5, 0.5, 0.5 ],
			"min": [ -0.5, -0.5, -0.5 ],
			"type": "VEC3"
		},
		{
			"bufferView": 2,
			"byteOffset": 2400,
			"componentType": 5126,
			"count": 24,
			"max": [ 1, 1, 1 ],
			"min": [ -1, -1, -1 ],
			"type": "VEC3"
		},
		{
			"bufferView": 1,
			"byteOffset": 1408,
			"componentType": 5126,
			"count": 24,
			"max": [ 1, 1 ],
			"min": [ 0, 0 ],
			"type": "VEC2"
		},
		{
			"bufferView": 1,
			"byteOffset": 1600,
			"componentType": 5126,
			"count": 24,
			"max": [ 0.9966581, 0.6528358 ],
			"min": [ 0.004055766, 0.004055766 ],
			"type": "VEC2"
		},
		{
			"bufferView": 3,
			"byteOffset": 1408,
			"componentType": 5126,
			"count": 24,
			"max": [ 0, 0, 1, 1 ],
			"min": [ -1, 0, -1, 1 ],
			"type": "VEC4"
		},
		{
			"bufferView": 0,
			"byteOffset": 480,
			"componentType": 5123,
			"count": 36,
			"max": [ 23 ],
			"min": [ 0 ],
			"type": "SCALAR"
		},
		{
			"bufferView": 2,
			"byteOffset": 2688,
			"componentType": 5126,
			"count": 408,
			"max": [ 0.01174135, 0.05039407, 0.0008159879 ],
			"min": [ -0.01174135, 0.01773349, -0.0008132204 ],
			"type": "VEC3"
		},
		{
			"bufferView": 2,
			"byteOffset": 7584,
			"componentType": 5126,
			"count": 408,
			"max": [ 0.996599, 0.9999884, 0.9985409 ],
			"min": [ -0.996599, -0.7517962, -0.9985405 ],
			"type": "VEC3"
		},
		{
			"bufferView": 1,
			"byteOffset": 1792,
			"componentType": 5126,
			"count": 408,
			"max": [ 1, 1 ],
			"min": [ 0, 0 ],
			"type": "VEC2"
		},
		{
			"bufferView": 3,
			"byteOffset": 1792,
			"componentType": 5126,
			"count": 408,
			"max": [ 1, 0.9988958, 0.07115572, 1 ],
			"min": [ -1, -0.9988958, -0.07140639, 1 ],
			"type": "VEC4"
		},
		{
			"bufferView": 0,
			"byteOffset": 552,
			"componentType": 5123,
			"count": 1800,
			"max": [ 407 ],
			"min": [ 0 ],
			"type": "SCALAR"
		}
	],
	"buffers": [
		{
			"byteLength": 30008,
			"uri": "Icon.bin"
		}
	],
	"bufferViews": [
		{
			"buffer": 0,
			"byteLength": 4152,
			"target": 34963,
			"byteOffset": 25856
		},
		{
			"buffer": 0,
			"byteLength": 5056,
			"target": 34962,
			"byteStride": 8,
			"byteOffset": 0
		},
		{
			"buffer": 0,
			"byteLength": 12480,
			"target": 34962,
			"byteStride": 12,
			"byteOffset": 5056
		},
		{
			"buffer": 0,
			"byteLength": 8320,
			"target": 34962,
			"byteStride": 16,
			"byteOffset": 17536
		}
	],
	"materials": [
		{
			"pbrMetallicRoughness": {
				"baseColorFactor": [1, 1, 1, 1],
				"metallicFactor": 0,
				"roughnessFactor": 0.5
			},
			"emissiveFactor": [0, 0, 0],
			"doubleSided": false,
			"name": "Default-Material"
		},
		{
			"pbrMetallicRoughness": {
				"baseColorFactor": [0, 0.8294213, 1, 1],
				"metallicFactor": 0,
				"roughnessFactor": 0.4343146
			},
			"emissiveFactor": [0, 0, 0],
			"doubleSided": false,
			"name": "initialShadingGroup"
		}
	],
	"meshes": [
		{
			"name": "mesh_Cylinder_504trigger",
			"primitives": [
				{
					"attributes": {
						"POSITION": 0,
						"NORMAL": 1,
						"TEXCOORD_0": 2,
						"TEXCOORD_1": 3,
						"TANGENT": 4
					},
					"indices": 5,
					"material": 0,
					"mode": 4
				}
			]
		},
		{
			"name": "mesh_Cube_502hit",
			"primitives": [
				{
					"attributes": {
						"POSITION": 6,
						"NORMAL": 7,
						"TEXCOORD_0": 8,
						"TEXCOORD_1": 9,
						"TANGENT": 10
					},
					"indices": 11,
					"material": 0,
					"mode": 4
				}
			]
		},
		{
			"name": "mesh_icon_376542icon",
			"primitives": [
				{
					"attributes": {
						"POSITION": 12,
						"NORMAL": 13,
						"TEXCOORD_0": 14,
						"TANGENT": 15
					},
					"indices": 16,
					"material": 1,
					"mode": 4
				}
			]
		}
	],
	"nodes": [
		{
			"name": "UnityGlTF_root",
			"children": [
				4
			]
		},
		{
			"name": "node_trigger_-364308",
			"mesh": 0,
			"translation": [ 0, 0.047, 0],
			"scale": [ 5, 0.35234, 5]
		},
		{
			"name": "node_hit_-389108",
			"mesh": 1,
			"translation": [ 0.0134, 0.8704, 0.0429],
			"scale": [ 0.600363, 0.7866423, 0.68568]
		},
		{
			"name": "node_icon_-308808",
			"mesh": 2,
			"scale": [ 25, 25, 25]
		},
		{
			"name": "node_Icon_-310922",
			"children": [
				3,
				1,
				2
			],
			"matrix": [1, 0, 0, 0, 0, 1, 0, 0, 0, 0, 1, 0, 0, 0, 0, 1]
		}
	],
	"scenes": [
		{
			"name":"defaultScene",
			"nodes": [
				0
			]
		}
	],
	"scene": 0
}