{
	"asset": {
		"generator": "Unity 2018.4.2f1",
		"extras": {
			"exporterVersion" : "2.2.1"
		},
		"version": "2.0"
	},
	"accessors": [
		{
			"bufferView": 2,
			"byteOffset": 0,
			"componentType": 5126,
			"count": 6330,
			"max": [ 72.54225, 9.581425, 43.47103 ],
			"min": [ -48.27853, -29.55944, -33.9337 ],
			"type": "VEC3"
		},
		{
			"bufferView": 2,
			"byteOffset": 75960,
			"componentType": 5126,
			"count": 6330,
			"max": [ 0.999777, 0.9999968, 0.9974359 ],
			"min": [ -0.9857091, -0.9999276, -0.9995854 ],
			"type": "VEC3"
		},
		{
			"bufferView": 1,
			"byteOffset": 0,
			"componentType": 5126,
			"count": 6330,
			"max": [ 1, 1 ],
			"min": [ 0, 0 ],
			"type": "VEC2"
		},
		{
			"bufferView": 3,
			"byteOffset": 0,
			"componentType": 5126,
			"count": 6330,
			"max": [ 1, 0.9880219, 0.9999771, 1 ],
			"min": [ -0.9999856, -0.9516666, -0.9999833, -1 ],
			"type": "VEC4"
		},
		{
			"bufferView": 0,
			"byteOffset": 0,
			"componentType": 5123,
			"count": 6933,
			"max": [ 2386 ],
			"min": [ 0 ],
			"type": "SCALAR"
		},
		{
			"bufferView": 0,
			"byteOffset": 13866,
			"componentType": 5123,
			"count": 681,
			"max": [ 2617 ],
			"min": [ 2387 ],
			"type": "SCALAR"
		},
		{
			"bufferView": 0,
			"byteOffset": 15228,
			"componentType": 5123,
			"count": 8298,
			"max": [ 6329 ],
			"min": [ 419 ],
			"type": "SCALAR"
		}
	],
	"buffers": [
		{
			"byteLength": 335664,
			"uri": "land001.bin"
		}
	],
	"bufferViews": [
		{
			"buffer": 0,
			"byteLength": 31824,
			"target": 34963,
			"byteOffset": 303840
		},
		{
			"buffer": 0,
			"byteLength": 50640,
			"target": 34962,
			"byteStride": 8,
			"byteOffset": 0
		},
		{
			"buffer": 0,
			"byteLength": 151920,
			"target": 34962,
			"byteStride": 12,
			"byteOffset": 50640
		},
		{
			"buffer": 0,
			"byteLength": 101280,
			"target": 34962,
			"byteStride": 16,
			"byteOffset": 202560
		}
	],
	"materials": [
		{
			"pbrMetallicRoughness": {
				"baseColorFactor": [0.4947867, 0.86, 0.4128, 1],
				"metallicFactor": 0,
				"roughnessFactor": 1
			},
			"emissiveFactor": [0, 0, 0],
			"doubleSided": false,
			"name": "dao1____________SG1"
		},
		{
			"pbrMetallicRoughness": {
				"baseColorFactor": [0, 0.91, 0.8038333, 1],
				"metallicFactor": 0,
				"roughnessFactor": 1
			},
			"emissiveFactor": [0, 0, 0],
			"doubleSided": false,
			"name": ".1"
		},
		{
			"pbrMetallicRoughness": {
				"baseColorFactor": [0.78, 0.59, 0.34, 1],
				"metallicFactor": 0,
				"roughnessFactor": 1
			},
			"emissiveFactor": [0, 0, 0],
			"doubleSided": false,
			"name": "dao1_____________1SG1"
		}
	],
	"meshes": [
		{
			"name": "mesh_road_A_67618land001",
			"primitives": [
				{
					"attributes": {
						"POSITION": 0,
						"NORMAL": 1,
						"TEXCOORD_0": 2,
						"TANGENT": 3
					},
					"indices": 4,
					"material": 0,
					"mode": 4
				},
				{
					"attributes": {
						"POSITION": 0,
						"NORMAL": 1,
						"TEXCOORD_0": 2,
						"TANGENT": 3
					},
					"indices": 5,
					"material": 1,
					"mode": 4
				},
				{
					"attributes": {
						"POSITION": 0,
						"NORMAL": 1,
						"TEXCOORD_0": 2,
						"TANGENT": 3
					},
					"indices": 6,
					"material": 2,
					"mode": 4
				}
			]
		}
	],
	"nodes": [
		{
			"name": "UnityGlTF_root",
			"children": [
				2
			]
		},
		{
			"name": "node_land001_-39938",
			"mesh": 0,
			"translation": [ -15.44225, -10.1516, -8.53566],
			"rotation": [6.565604E-18, 0, 7.359921E-18, 1]
		},
		{
			"name": "node_land001_30442",
			"children": [
				1
			],
			"matrix": [1, 0, 0, 0, 0, 1, 0, 0, 0, 0, 1, 0, 0, 0, 0, 1]
		}
	],
	"scenes": [
		{
			"name":"defaultScene",
			"nodes": [
				0
			]
		}
	],
	"scene": 0
}