{
	"asset": {
		"generator": "Unity 2018.4.2f1",
		"extras": {
			"exporterVersion" : "2.2.1"
		},
		"version": "2.0"
	},
	"accessors": [
		{
			"bufferView": 2,
			"byteOffset": 0,
			"componentType": 5126,
			"count": 2572,
			"max": [ 21.6498, 39.41614, 7.942106 ],
			"min": [ 0.8963282, 28.78525, -12.63041 ],
			"type": "VEC3"
		},
		{
			"bufferView": 2,
			"byteOffset": 30864,
			"componentType": 5126,
			"count": 2572,
			"max": [ 0.9849223, 0.999989, 0.9987186 ],
			"min": [ -0.9704421, -0.999047, -0.9816072 ],
			"type": "VEC3"
		},
		{
			"bufferView": 1,
			"byteOffset": 0,
			"componentType": 5126,
			"count": 2572,
			"max": [ 0.998999, 0.998999 ],
			"min": [ 0, 0 ],
			"type": "VEC2"
		},
		{
			"bufferView": 3,
			"byteOffset": 0,
			"componentType": 5126,
			"count": 2572,
			"max": [ 1, 0.5575168, 0.9445295, 1 ],
			"min": [ -0.9862887, -0.528129, -0.9784119, -1 ],
			"type": "VEC4"
		},
		{
			"bufferView": 0,
			"byteOffset": 0,
			"componentType": 5123,
			"count": 7878,
			"max": [ 1437 ],
			"min": [ 0 ],
			"type": "SCALAR"
		},
		{
			"bufferView": 0,
			"byteOffset": 15756,
			"componentType": 5123,
			"count": 7086,
			"max": [ 2571 ],
			"min": [ 573 ],
			"type": "SCALAR"
		},
		{
			"bufferView": 2,
			"byteOffset": 61728,
			"componentType": 5126,
			"count": 1371,
			"max": [ 9.543033, 5.592035, 4.649937 ],
			"min": [ -9.543033, -5.592035, -4.649937 ],
			"type": "VEC3"
		},
		{
			"bufferView": 2,
			"byteOffset": 78180,
			"componentType": 5126,
			"count": 1371,
			"max": [ 0.9997649, 0.9948006, 0.998626 ],
			"min": [ -0.9986279, -0.9986987, -0.9997867 ],
			"type": "VEC3"
		},
		{
			"bufferView": 1,
			"byteOffset": 20576,
			"componentType": 5126,
			"count": 1371,
			"max": [ 0.998999, 1 ],
			"min": [ 0, 0 ],
			"type": "VEC2"
		},
		{
			"bufferView": 3,
			"byteOffset": 41152,
			"componentType": 5126,
			"count": 1371,
			"max": [ 1, 0.9749165, 0.9881667, 1 ],
			"min": [ -0.9886521, -0.9998597, -0.9667529, -1 ],
			"type": "VEC4"
		},
		{
			"bufferView": 0,
			"byteOffset": 29928,
			"componentType": 5123,
			"count": 1428,
			"max": [ 1370 ],
			"min": [ 0 ],
			"type": "SCALAR"
		}
	],
	"buffers": [
		{
			"byteLength": 222048,
			"uri": "land003.bin"
		}
	],
	"bufferViews": [
		{
			"buffer": 0,
			"byteLength": 32784,
			"target": 34963,
			"byteOffset": 189264
		},
		{
			"buffer": 0,
			"byteLength": 31544,
			"target": 34962,
			"byteStride": 8,
			"byteOffset": 0
		},
		{
			"buffer": 0,
			"byteLength": 94632,
			"target": 34962,
			"byteStride": 12,
			"byteOffset": 31544
		},
		{
			"buffer": 0,
			"byteLength": 63088,
			"target": 34962,
			"byteStride": 16,
			"byteOffset": 126176
		}
	],
	"materials": [
		{
			"pbrMetallicRoughness": {
				"baseColorFactor": [0.78, 0.59, 0.34, 1],
				"metallicFactor": 0,
				"roughnessFactor": 1
			},
			"emissiveFactor": [0, 0, 0],
			"doubleSided": false,
			"name": "dao1_____________1SG1"
		},
		{
			"pbrMetallicRoughness": {
				"baseColorFactor": [0.4947867, 0.86, 0.4128, 1],
				"metallicFactor": 0,
				"roughnessFactor": 1
			},
			"emissiveFactor": [0, 0, 0],
			"doubleSided": false,
			"name": "dao1____________SG1"
		},
		{
			"pbrMetallicRoughness": {
				"baseColorFactor": [0.6, 0.6, 0.6, 1],
				"metallicFactor": 0,
				"roughnessFactor": 1
			},
			"emissiveFactor": [0, 0, 0],
			"doubleSided": false,
			"name": "_Material #167"
		}
	],
	"meshes": [
		{
			"name": "mesh_road_B_67624land001",
			"primitives": [
				{
					"attributes": {
						"POSITION": 0,
						"NORMAL": 1,
						"TEXCOORD_0": 2,
						"TANGENT": 3
					},
					"indices": 4,
					"material": 0,
					"mode": 4
				},
				{
					"attributes": {
						"POSITION": 0,
						"NORMAL": 1,
						"TEXCOORD_0": 2,
						"TANGENT": 3
					},
					"indices": 5,
					"material": 1,
					"mode": 4
				}
			]
		},
		{
			"name": "mesh_rock_67626land001",
			"primitives": [
				{
					"attributes": {
						"POSITION": 6,
						"NORMAL": 7,
						"TEXCOORD_0": 8,
						"TANGENT": 9
					},
					"indices": 10,
					"material": 2,
					"mode": 4
				}
			]
		}
	],
	"nodes": [
		{
			"name": "UnityGlTF_root",
			"children": [
				3
			]
		},
		{
			"name": "node_land001_-39940",
			"mesh": 0,
			"translation": [ 1.916975, -29.43393, 5.341927],
			"rotation": [-3.194234E-17, 0.9180719, 3.194234E-17, -0.3964139]
		},
		{
			"name": "node_land001_-39942",
			"mesh": 1,
			"translation": [ -4.086112, 3.630114, 4.578913],
			"rotation": [2.532478E-17, 0, -6.381395E-17, 1]
		},
		{
			"name": "node_land003_30590",
			"children": [
				1,
				2
			],
			"matrix": [1, 0, 0, 0, 0, 1, 0, 0, 0, 0, 1, 0, 0, 0, 0, 1]
		}
	],
	"scenes": [
		{
			"name":"defaultScene",
			"nodes": [
				0
			]
		}
	],
	"scene": 0
}