{
	"asset": {
		"generator": "Unity 2018.4.2f1",
		"extras": {
			"exporterVersion" : "2.2.1"
		},
		"version": "2.0"
	},
	"accessors": [
		{
			"bufferView": 2,
			"byteOffset": 0,
			"componentType": 5126,
			"count": 1804,
			"max": [ 0.04540129, 0.03330184, 0.02680654 ],
			"min": [ -0.0401382, -3.997994E-07, -0.02448065 ],
			"type": "VEC3"
		},
		{
			"bufferView": 2,
			"byteOffset": 21648,
			"componentType": 5126,
			"count": 1804,
			"max": [ 0.9353095, 0.9994018, 0.9758775 ],
			"min": [ -0.9788033, -1, -0.9695426 ],
			"type": "VEC3"
		},
		{
			"bufferView": 1,
			"byteOffset": 0,
			"componentType": 5126,
			"count": 1804,
			"max": [ 0.7342594, 0.2476096 ],
			"min": [ 0.6842594, 0.1976097 ],
			"type": "VEC2"
		},
		{
			"bufferView": 3,
			"byteOffset": 0,
			"componentType": 5126,
			"count": 1804,
			"max": [ 1, 0.9831876, 0.9849082, 1 ],
			"min": [ -0.9993364, -0.9732136, -0.9709921, -1 ],
			"type": "VEC4"
		},
		{
			"bufferView": 0,
			"byteOffset": 0,
			"componentType": 5123,
			"count": 1944,
			"max": [ 1803 ],
			"min": [ 0 ],
			"type": "SCALAR"
		}
	],
	"buffers": [
		{
			"byteLength": 90480,
			"uri": "mountain003.bin"
		}
	],
	"bufferViews": [
		{
			"buffer": 0,
			"byteLength": 3888,
			"target": 34963,
			"byteOffset": 86592
		},
		{
			"buffer": 0,
			"byteLength": 14432,
			"target": 34962,
			"byteStride": 8,
			"byteOffset": 0
		},
		{
			"buffer": 0,
			"byteLength": 43296,
			"target": 34962,
			"byteStride": 12,
			"byteOffset": 14432
		},
		{
			"buffer": 0,
			"byteLength": 28864,
			"target": 34962,
			"byteStride": 16,
			"byteOffset": 57728
		}
	],
	"images": [
		{
			"uri": "SPW_Natures_02.jpg"
		}
	],
	"materials": [
		{
			"pbrMetallicRoughness": {
				"baseColorTexture" : {
					"index" : 0,
					"texCoord" : 0
				},
				"baseColorFactor": [1, 1, 1, 1],
				"metallicFactor": 0,
				"roughnessFactor": 1
			},
			"emissiveFactor": [0, 0, 0],
			"doubleSided": false,
			"name": "SPW_Natures_02"
		}
	],
	"meshes": [
		{
			"name": "mesh_mountain003_1_12652mountain003_1",
			"primitives": [
				{
					"attributes": {
						"POSITION": 0,
						"NORMAL": 1,
						"TEXCOORD_0": 2,
						"TANGENT": 3
					},
					"indices": 4,
					"material": 0,
					"mode": 4
				}
			]
		}
	],
	"nodes": [
		{
			"name": "UnityGlTF_root",
			"children": [
				1
			]
		},
		{
			"name": "node_mountain003_26752",
			"children": [
				2
			],
			"matrix": [1, 0, 0, 0, 0, 1, 0, 0, 0, 0, 1, 0, 0, 0, 0, 1]
		},
		{
			"name": "node_mountain003_1_-1746",
			"mesh": 0,
			"scale": [ 100, 100, 100]
		}
	],
	"samplers": [
		{
			"magFilter": 9729,
			"minFilter": 9985,
			"wrapS": 10497,
			"wrapT": 10497
		}
	],
	"scenes": [
		{
			"name":"defaultScene",
			"nodes": [
				0
			]
		}
	],
	"scene": 0,
	"textures": [
		{
			"sampler": 0,
			"source": 0
		}
	]
}