{
	"asset": {
		"generator": "Unity 2018.4.2f1",
		"extras": {
			"exporterVersion" : "2.2.1"
		},
		"version": "2.0"
	},
	"accessors": [
		{
			"bufferView": 2,
			"byteOffset": 0,
			"componentType": 5126,
			"count": 1112,
			"max": [ 1.073278, 2.501556, 1.091087 ],
			"min": [ -1.073278, -2.501556, -1.091087 ],
			"type": "VEC3"
		},
		{
			"bufferView": 2,
			"byteOffset": 13344,
			"componentType": 5126,
			"count": 1112,
			"max": [ 0.9984994, 1, 0.9995189 ],
			"min": [ -0.9988224, -0.9999031, -0.9995834 ],
			"type": "VEC3"
		},
		{
			"bufferView": 1,
			"byteOffset": 0,
			"componentType": 5126,
			"count": 1112,
			"max": [ 0.998999, 0.998999 ],
			"min": [ 0.001001, 0.001001 ],
			"type": "VEC2"
		},
		{
			"bufferView": 3,
			"byteOffset": 0,
			"componentType": 5126,
			"count": 1112,
			"max": [ 0.9960616, 0.9978393, 0.9954918, 1 ],
			"min": [ -0.9988077, -0.9996841, -0.9957782, -1 ],
			"type": "VEC4"
		},
		{
			"bufferView": 0,
			"byteOffset": 0,
			"componentType": 5123,
			"count": 132,
			"max": [ 79 ],
			"min": [ 0 ],
			"type": "SCALAR"
		},
		{
			"bufferView": 0,
			"byteOffset": 264,
			"componentType": 5123,
			"count": 1560,
			"max": [ 1111 ],
			"min": [ 80 ],
			"type": "SCALAR"
		}
	],
	"buffers": [
		{
			"byteLength": 56760,
			"uri": "tree009.bin"
		}
	],
	"bufferViews": [
		{
			"buffer": 0,
			"byteLength": 3384,
			"target": 34963,
			"byteOffset": 53376
		},
		{
			"buffer": 0,
			"byteLength": 8896,
			"target": 34962,
			"byteStride": 8,
			"byteOffset": 0
		},
		{
			"buffer": 0,
			"byteLength": 26688,
			"target": 34962,
			"byteStride": 12,
			"byteOffset": 8896
		},
		{
			"buffer": 0,
			"byteLength": 17792,
			"target": 34962,
			"byteStride": 16,
			"byteOffset": 35584
		}
	],
	"materials": [
		{
			"pbrMetallicRoughness": {
				"baseColorFactor": [0.57, 0.34, 0.16, 1],
				"metallicFactor": 0,
				"roughnessFactor": 1
			},
			"emissiveFactor": [0, 0, 0],
			"doubleSided": false,
			"name": "_Bridge1SG1"
		},
		{
			"pbrMetallicRoughness": {
				"baseColorFactor": [0.3220915, 0.6901961, 0.2760784, 1],
				"metallicFactor": 0,
				"roughnessFactor": 1
			},
			"emissiveFactor": [0, 0, 0],
			"doubleSided": false,
			"name": "Green"
		}
	],
	"meshes": [
		{
			"name": "mesh__Tree3_4_27592tree009",
			"primitives": [
				{
					"attributes": {
						"POSITION": 0,
						"NORMAL": 1,
						"TEXCOORD_0": 2,
						"TANGENT": 3
					},
					"indices": 4,
					"material": 0,
					"mode": 4
				},
				{
					"attributes": {
						"POSITION": 0,
						"NORMAL": 1,
						"TEXCOORD_0": 2,
						"TANGENT": 3
					},
					"indices": 5,
					"material": 1,
					"mode": 4
				}
			]
		}
	],
	"nodes": [
		{
			"name": "UnityGlTF_root",
			"children": [
				2
			]
		},
		{
			"name": "node_tree009_-198472",
			"mesh": 0,
			"translation": [ 0, 2.31, 0],
			"scale": [ 0.9422899, 0.9422899, 0.9422899],
			"rotation": [2.331599E-17, 0, 4.251395E-17, 1]
		},
		{
			"name": "node_tree009_-199536",
			"children": [
				1
			],
			"matrix": [1, 0, 0, 0, 0, 1, 0, 0, 0, 0, 1, 0, 0, 0, 0, 1]
		}
	],
	"scenes": [
		{
			"name":"defaultScene",
			"nodes": [
				0
			]
		}
	],
	"scene": 0
}