{
	"asset": {
		"generator": "Unity 2018.4.2f1",
		"extras": {
			"exporterVersion" : "2.2.1"
		},
		"version": "2.0"
	},
	"accessors": [
		{
			"bufferView": 2,
			"byteOffset": 0,
			"componentType": 5126,
			"count": 678,
			"max": [ 2.125373, 2.699841, 1.484751 ],
			"min": [ -2.125373, -2.699841, -1.484751 ],
			"type": "VEC3"
		},
		{
			"bufferView": 2,
			"byteOffset": 8136,
			"componentType": 5126,
			"count": 678,
			"max": [ 0.9999994, 1, 1 ],
			"min": [ -0.9999998, -1, -0.9999467 ],
			"type": "VEC3"
		},
		{
			"bufferView": 1,
			"byteOffset": 0,
			"componentType": 5126,
			"count": 678,
			"max": [ 0.8652344, 0.4399414 ],
			"min": [ 0.7641602, 0.1132813 ],
			"type": "VEC2"
		},
		{
			"bufferView": 1,
			"byteOffset": 5424,
			"componentType": 5126,
			"count": 678,
			"max": [ 0.9892578, 0.9958992 ],
			"min": [ 0.0041008, 0.004394531 ],
			"type": "VEC2"
		},
		{
			"bufferView": 1,
			"byteOffset": 10848,
			"componentType": 5126,
			"count": 678,
			"max": [ 0.9833984, 0.9921875 ],
			"min": [ 0.0078125, 0.009765625 ],
			"type": "VEC2"
		},
		{
			"bufferView": 3,
			"byteOffset": 0,
			"componentType": 5126,
			"count": 678,
			"max": [ 0.994615, 0.998491, 0.9972525, -1 ],
			"min": [ -0.9999638, -0.9981626, -1, -1 ],
			"type": "VEC4"
		},
		{
			"bufferView": 0,
			"byteOffset": 0,
			"componentType": 5123,
			"count": 720,
			"max": [ 677 ],
			"min": [ 0 ],
			"type": "SCALAR"
		},
		{
			"bufferView": 2,
			"byteOffset": 16272,
			"componentType": 5126,
			"count": 24,
			"max": [ 0.5, 0.5, 0.5 ],
			"min": [ -0.5, -0.5, -0.5 ],
			"type": "VEC3"
		},
		{
			"bufferView": 2,
			"byteOffset": 16560,
			"componentType": 5126,
			"count": 24,
			"max": [ 1, 1, 1 ],
			"min": [ -1, -1, -1 ],
			"type": "VEC3"
		},
		{
			"bufferView": 1,
			"byteOffset": 16272,
			"componentType": 5126,
			"count": 24,
			"max": [ 1, 1 ],
			"min": [ 0, 0 ],
			"type": "VEC2"
		},
		{
			"bufferView": 1,
			"byteOffset": 16464,
			"componentType": 5126,
			"count": 24,
			"max": [ 0.9966581, 0.6528358 ],
			"min": [ 0.004055766, 0.004055766 ],
			"type": "VEC2"
		},
		{
			"bufferView": 3,
			"byteOffset": 10848,
			"componentType": 5126,
			"count": 24,
			"max": [ 0, 0, 1, 1 ],
			"min": [ -1, 0, -1, 1 ],
			"type": "VEC4"
		},
		{
			"bufferView": 0,
			"byteOffset": 1440,
			"componentType": 5123,
			"count": 36,
			"max": [ 23 ],
			"min": [ 0 ],
			"type": "SCALAR"
		}
	],
	"buffers": [
		{
			"byteLength": 46248,
			"uri": "bridge009.bin"
		}
	],
	"bufferViews": [
		{
			"buffer": 0,
			"byteLength": 1512,
			"target": 34963,
			"byteOffset": 44736
		},
		{
			"buffer": 0,
			"byteLength": 16656,
			"target": 34962,
			"byteStride": 8,
			"byteOffset": 0
		},
		{
			"buffer": 0,
			"byteLength": 16848,
			"target": 34962,
			"byteStride": 12,
			"byteOffset": 16656
		},
		{
			"buffer": 0,
			"byteLength": 11232,
			"target": 34962,
			"byteStride": 16,
			"byteOffset": 33504
		}
	],
	"images": [
		{
			"uri": "TropicalIsland01Diffuse.jpg"
		}
	],
	"materials": [
		{
			"pbrMetallicRoughness": {
				"baseColorTexture" : {
					"index" : 0,
					"texCoord" : 0
				},
				"baseColorFactor": [0.8, 0.8, 0.8, 1],
				"metallicFactor": 0,
				"roughnessFactor": 1
			},
			"emissiveFactor": [0, 0, 0],
			"doubleSided": false,
			"name": "TropicalIsland01Mat"
		},
		{
			"pbrMetallicRoughness": {
				"baseColorFactor": [1, 1, 1, 1],
				"metallicFactor": 0,
				"roughnessFactor": 0.5
			},
			"emissiveFactor": [0, 0, 0],
			"doubleSided": false,
			"name": "Default-Material"
		}
	],
	"meshes": [
		{
			"name": "mesh_Manmade01_18682bridge009",
			"primitives": [
				{
					"attributes": {
						"POSITION": 0,
						"NORMAL": 1,
						"TEXCOORD_0": 2,
						"TEXCOORD_1": 3,
						"TEXCOORD_2": 4,
						"TANGENT": 5
					},
					"indices": 6,
					"material": 0,
					"mode": 4
				}
			]
		},
		{
			"name": "mesh_Cube_680collider (8)",
			"primitives": [
				{
					"attributes": {
						"POSITION": 7,
						"NORMAL": 8,
						"TEXCOORD_0": 9,
						"TEXCOORD_1": 10,
						"TANGENT": 11
					},
					"indices": 12,
					"material": 1,
					"mode": 4
				}
			]
		}
	],
	"nodes": [
		{
			"name": "UnityGlTF_root",
			"children": [
				1
			]
		},
		{
			"name": "node_bridge009_-138680",
			"children": [
				3,
				2
			],
			"matrix": [1, 0, 0, 0, 0, 1, 0, 0, 0, 0, 1, 0, 0, 0, 0, 1]
		},
		{
			"name": "node_bridge009_-138914",
			"mesh": 0,
			"translation": [ 0, -1.234, -0.593],
			"rotation": [-0.7071068, 0, 0, -0.7071068]
		},
		{
			"name": "node_collider (8)_-138682",
			"mesh": 1,
			"scale": [ 0.01, 0.01, 0.01]
		}
	],
	"samplers": [
		{
			"magFilter": 9729,
			"minFilter": 9985,
			"wrapS": 10497,
			"wrapT": 10497
		}
	],
	"scenes": [
		{
			"name":"defaultScene",
			"nodes": [
				0
			]
		}
	],
	"scene": 0,
	"textures": [
		{
			"sampler": 0,
			"source": 0
		}
	]
}