{
	"asset": {
		"generator": "Unity 2018.4.2f1",
		"extras": {
			"exporterVersion" : "2.2.1"
		},
		"version": "2.0"
	},
	"accessors": [
		{
			"bufferView": 2,
			"byteOffset": 0,
			"componentType": 5126,
			"count": 227,
			"max": [ 0.3173953, 0.3173956, 0.3369791 ],
			"min": [ -0.3173953, -0.317395, -0.4136963 ],
			"type": "VEC3"
		},
		{
			"bufferView": 2,
			"byteOffset": 2724,
			"componentType": 5126,
			"count": 227,
			"max": [ 0.9983974, 0.9709178, 0.6899932 ],
			"min": [ -0.9983975, -0.9724725, -1 ],
			"type": "VEC3"
		},
		{
			"bufferView": 1,
			"byteOffset": 0,
			"componentType": 5126,
			"count": 227,
			"max": [ 0.3027344, 0.3886719 ],
			"min": [ 0.02464294, 0.1103516 ],
			"type": "VEC2"
		},
		{
			"bufferView": 1,
			"byteOffset": 1816,
			"componentType": 5126,
			"count": 227,
			"max": [ 0.9912109, 0.9914246 ],
			"min": [ 0.008575439, 0.008789063 ],
			"type": "VEC2"
		},
		{
			"bufferView": 3,
			"byteOffset": 0,
			"componentType": 5126,
			"count": 227,
			"max": [ 1, 0.7401556, 0.9982911, 1 ],
			"min": [ -1, -0.7401718, -0.7089112, -1 ],
			"type": "VEC4"
		},
		{
			"bufferView": 0,
			"byteOffset": 0,
			"componentType": 5123,
			"count": 72,
			"max": [ 55 ],
			"min": [ 0 ],
			"type": "SCALAR"
		},
		{
			"bufferView": 0,
			"byteOffset": 144,
			"componentType": 5123,
			"count": 258,
			"max": [ 226 ],
			"min": [ 56 ],
			"type": "SCALAR"
		},
		{
			"bufferView": 2,
			"byteOffset": 5448,
			"componentType": 5126,
			"count": 24,
			"max": [ 0.5, 0.5, 0.5 ],
			"min": [ -0.5, -0.5, -0.5 ],
			"type": "VEC3"
		},
		{
			"bufferView": 2,
			"byteOffset": 5736,
			"componentType": 5126,
			"count": 24,
			"max": [ 1, 1, 1 ],
			"min": [ -1, -1, -1 ],
			"type": "VEC3"
		},
		{
			"bufferView": 1,
			"byteOffset": 3632,
			"componentType": 5126,
			"count": 24,
			"max": [ 1, 1 ],
			"min": [ 0, 0 ],
			"type": "VEC2"
		},
		{
			"bufferView": 1,
			"byteOffset": 3824,
			"componentType": 5126,
			"count": 24,
			"max": [ 0.9966581, 0.6528358 ],
			"min": [ 0.004055766, 0.004055766 ],
			"type": "VEC2"
		},
		{
			"bufferView": 3,
			"byteOffset": 3632,
			"componentType": 5126,
			"count": 24,
			"max": [ 0, 0, 1, 1 ],
			"min": [ -1, 0, -1, 1 ],
			"type": "VEC4"
		},
		{
			"bufferView": 0,
			"byteOffset": 660,
			"componentType": 5123,
			"count": 36,
			"max": [ 23 ],
			"min": [ 0 ],
			"type": "SCALAR"
		}
	],
	"buffers": [
		{
			"byteLength": 14788,
			"uri": "carrot001.bin"
		}
	],
	"bufferViews": [
		{
			"buffer": 0,
			"byteLength": 732,
			"target": 34963,
			"byteOffset": 14056
		},
		{
			"buffer": 0,
			"byteLength": 4016,
			"target": 34962,
			"byteStride": 8,
			"byteOffset": 0
		},
		{
			"buffer": 0,
			"byteLength": 6024,
			"target": 34962,
			"byteStride": 12,
			"byteOffset": 4016
		},
		{
			"buffer": 0,
			"byteLength": 4016,
			"target": 34962,
			"byteStride": 16,
			"byteOffset": 10040
		}
	],
	"images": [
		{
			"uri": "T_PolygonFarm_Leaves_Diff.jpg"
		},
		{
			"uri": "T_PolygonFarm_Leaves_Normals.jpg"
		},
		{
			"uri": "T_PolygonFarm_01_A.jpg"
		}
	],
	"materials": [
		{
			"pbrMetallicRoughness": {
				"baseColorTexture" : {
					"index" : 0,
					"texCoord" : 0
				},
				"baseColorFactor": [0.8, 0.8, 0.8, 1],
				"metallicFactor": 0,
				"roughnessFactor": 1
			},
			"normalTexture" : {
				"index" : 1,
				"texCoord" : 0,
				"scale" : 1
			},
			"emissiveFactor": [0, 0, 0],
			"doubleSided": false,
			"name": "Mat_PolygonFarm_Leaves"
		},
		{
			"pbrMetallicRoughness": {
				"baseColorTexture" : {
					"index" : 2,
					"texCoord" : 0
				},
				"baseColorFactor": [1, 1, 1, 1],
				"metallicFactor": 0,
				"roughnessFactor": 1
			},
			"emissiveFactor": [0, 0, 0],
			"doubleSided": false,
			"name": "Mat_PolygonFarm_01_A"
		},
		{
			"pbrMetallicRoughness": {
				"baseColorFactor": [1, 1, 1, 1],
				"metallicFactor": 0,
				"roughnessFactor": 0.5
			},
			"emissiveFactor": [0, 0, 0],
			"doubleSided": false,
			"name": "Default-Material"
		}
	],
	"meshes": [
		{
			"name": "mesh_SM_Prop_Carrot_01_L_3_18884SM_Prop_Carrot_01_L_3",
			"primitives": [
				{
					"attributes": {
						"POSITION": 0,
						"NORMAL": 1,
						"TEXCOORD_0": 2,
						"TEXCOORD_1": 3,
						"TANGENT": 4
					},
					"indices": 5,
					"material": 0,
					"mode": 4
				},
				{
					"attributes": {
						"POSITION": 0,
						"NORMAL": 1,
						"TEXCOORD_0": 2,
						"TEXCOORD_1": 3,
						"TANGENT": 4
					},
					"indices": 6,
					"material": 1,
					"mode": 4
				}
			]
		},
		{
			"name": "mesh_Cube_680collider (8)",
			"primitives": [
				{
					"attributes": {
						"POSITION": 7,
						"NORMAL": 8,
						"TEXCOORD_0": 9,
						"TEXCOORD_1": 10,
						"TANGENT": 11
					},
					"indices": 12,
					"material": 2,
					"mode": 4
				}
			]
		}
	],
	"nodes": [
		{
			"name": "UnityGlTF_root",
			"children": [
				2
			]
		},
		{
			"name": "node_SM_Prop_Carrot_01_L_3_-78674",
			"mesh": 0,
			"rotation": [-0.7071068, 0, 0, -0.7071068]
		},
		{
			"name": "node_carrot001_-17288",
			"children": [
				3,
				1
			],
			"matrix": [1, 0, 0, 0, 0, 1, 0, 0, 0, 0, 1, 0, 0, 0, 0, 1]
		},
		{
			"name": "node_collider (8)_-17290",
			"mesh": 1,
			"scale": [ 0.01, 0.01, 0.01]
		}
	],
	"samplers": [
		{
			"magFilter": 9729,
			"minFilter": 9985,
			"wrapS": 10497,
			"wrapT": 10497
		}
	],
	"scenes": [
		{
			"name":"defaultScene",
			"nodes": [
				0
			]
		}
	],
	"scene": 0,
	"textures": [
		{
			"sampler": 0,
			"source": 0
		},
		{
			"sampler": 0,
			"source": 1
		},
		{
			"sampler": 0,
			"source": 2
		}
	]
}