{
	"asset": {
		"generator": "Unity 2018.4.2f1",
		"extras": {
			"exporterVersion" : "2.2.1"
		},
		"version": "2.0"
	},
	"accessors": [
		{
			"bufferView": 2,
			"byteOffset": 0,
			"componentType": 5126,
			"count": 24,
			"max": [ 0.5, 0.5, 0.5 ],
			"min": [ -0.5, -0.5, -0.5 ],
			"type": "VEC3"
		},
		{
			"bufferView": 2,
			"byteOffset": 288,
			"componentType": 5126,
			"count": 24,
			"max": [ 1, 1, 1 ],
			"min": [ -1, -1, -1 ],
			"type": "VEC3"
		},
		{
			"bufferView": 1,
			"byteOffset": 0,
			"componentType": 5126,
			"count": 24,
			"max": [ 1, 1 ],
			"min": [ 0, 0 ],
			"type": "VEC2"
		},
		{
			"bufferView": 1,
			"byteOffset": 192,
			"componentType": 5126,
			"count": 24,
			"max": [ 0.9966581, 0.6528358 ],
			"min": [ 0.004055766, 0.004055766 ],
			"type": "VEC2"
		},
		{
			"bufferView": 3,
			"byteOffset": 0,
			"componentType": 5126,
			"count": 24,
			"max": [ 0, 0, 1, 1 ],
			"min": [ -1, 0, -1, 1 ],
			"type": "VEC4"
		},
		{
			"bufferView": 0,
			"byteOffset": 0,
			"componentType": 5123,
			"count": 36,
			"max": [ 23 ],
			"min": [ 0 ],
			"type": "SCALAR"
		},
		{
			"bufferView": 2,
			"byteOffset": 576,
			"componentType": 5126,
			"count": 593,
			"max": [ 1.475655, 0.2855259, 0.3274728 ],
			"min": [ -1.475655, -0.2855259, -0.3274728 ],
			"type": "VEC3"
		},
		{
			"bufferView": 2,
			"byteOffset": 7692,
			"componentType": 5126,
			"count": 593,
			"max": [ 0.9999919, 1, 1 ],
			"min": [ -1, -1, -1 ],
			"type": "VEC3"
		},
		{
			"bufferView": 1,
			"byteOffset": 384,
			"componentType": 5126,
			"count": 593,
			"max": [ 0.8691406, 0.4067383 ],
			"min": [ 0.7753906, 0.01171875 ],
			"type": "VEC2"
		},
		{
			"bufferView": 1,
			"byteOffset": 5128,
			"componentType": 5126,
			"count": 593,
			"max": [ 0.9960938, 0.9964485 ],
			"min": [ 0.003551483, 0.2070313 ],
			"type": "VEC2"
		},
		{
			"bufferView": 1,
			"byteOffset": 9872,
			"componentType": 5126,
			"count": 593,
			"max": [ 0.9848633, 0.9921875 ],
			"min": [ 0.0078125, 0.009277344 ],
			"type": "VEC2"
		},
		{
			"bufferView": 3,
			"byteOffset": 384,
			"componentType": 5126,
			"count": 593,
			"max": [ 0.9999908, 1, 0.9996116, -1 ],
			"min": [ -0.9999925, -1, -1, -1 ],
			"type": "VEC4"
		},
		{
			"bufferView": 0,
			"byteOffset": 72,
			"componentType": 5123,
			"count": 726,
			"max": [ 592 ],
			"min": [ 0 ],
			"type": "SCALAR"
		}
	],
	"buffers": [
		{
			"byteLength": 40820,
			"uri": "fence001.bin"
		}
	],
	"bufferViews": [
		{
			"buffer": 0,
			"byteLength": 1524,
			"target": 34963,
			"byteOffset": 39296
		},
		{
			"buffer": 0,
			"byteLength": 14616,
			"target": 34962,
			"byteStride": 8,
			"byteOffset": 0
		},
		{
			"buffer": 0,
			"byteLength": 14808,
			"target": 34962,
			"byteStride": 12,
			"byteOffset": 14616
		},
		{
			"buffer": 0,
			"byteLength": 9872,
			"target": 34962,
			"byteStride": 16,
			"byteOffset": 29424
		}
	],
	"images": [
		{
			"uri": "TropicalIsland01Diffuse.jpg"
		}
	],
	"materials": [
		{
			"pbrMetallicRoughness": {
				"baseColorFactor": [1, 1, 1, 1],
				"metallicFactor": 0,
				"roughnessFactor": 0.5
			},
			"emissiveFactor": [0, 0, 0],
			"doubleSided": false,
			"name": "Default-Material"
		},
		{
			"pbrMetallicRoughness": {
				"baseColorTexture" : {
					"index" : 0,
					"texCoord" : 0
				},
				"baseColorFactor": [0.8, 0.8, 0.8, 1],
				"metallicFactor": 0,
				"roughnessFactor": 1
			},
			"emissiveFactor": [0, 0, 0],
			"doubleSided": false,
			"name": "TropicalIsland01Mat"
		}
	],
	"meshes": [
		{
			"name": "mesh_Cube_680collider (8)",
			"primitives": [
				{
					"attributes": {
						"POSITION": 0,
						"NORMAL": 1,
						"TEXCOORD_0": 2,
						"TEXCOORD_1": 3,
						"TANGENT": 4
					},
					"indices": 5,
					"material": 0,
					"mode": 4
				}
			]
		},
		{
			"name": "mesh_Manmade07_2_18710Manmade07_2",
			"primitives": [
				{
					"attributes": {
						"POSITION": 6,
						"NORMAL": 7,
						"TEXCOORD_0": 8,
						"TEXCOORD_1": 9,
						"TEXCOORD_2": 10,
						"TANGENT": 11
					},
					"indices": 12,
					"material": 1,
					"mode": 4
				}
			]
		}
	],
	"nodes": [
		{
			"name": "UnityGlTF_root",
			"children": [
				2
			]
		},
		{
			"name": "node_collider (8)_-16874",
			"mesh": 0,
			"scale": [ 0.01, 0.01, 0.01]
		},
		{
			"name": "node_fence001_-16522",
			"children": [
				1,
				3
			],
			"matrix": [1, 0, 0, 0, 0, 1, 0, 0, 0, 0, 1, 0, 0, 0, 0, 1]
		},
		{
			"name": "node_Manmade07_2_-17566",
			"mesh": 1,
			"translation": [ 0, 0.284, 0],
			"rotation": [-0.7071068, 0, 0, -0.7071068]
		}
	],
	"samplers": [
		{
			"magFilter": 9729,
			"minFilter": 9985,
			"wrapS": 10497,
			"wrapT": 10497
		}
	],
	"scenes": [
		{
			"name":"defaultScene",
			"nodes": [
				0
			]
		}
	],
	"scene": 0,
	"textures": [
		{
			"sampler": 0,
			"source": 0
		}
	]
}