{
	"asset": {
		"generator": "Unity 2018.4.2f1",
		"extras": {
			"exporterVersion" : "2.2.1"
		},
		"version": "2.0"
	},
	"accessors": [
		{
			"bufferView": 2,
			"byteOffset": 0,
			"componentType": 5126,
			"count": 1501,
			"max": [ 21.04266, 11.61205, 21.22969 ],
			"min": [ -21.04266, -11.98079, -21.2297 ],
			"type": "VEC3"
		},
		{
			"bufferView": 2,
			"byteOffset": 18012,
			"componentType": 5126,
			"count": 1501,
			"max": [ 0.9991437, 0.9999973, 0.9901216 ],
			"min": [ -0.9999996, -0.9927043, -0.9983071 ],
			"type": "VEC3"
		},
		{
			"bufferView": 1,
			"byteOffset": 0,
			"componentType": 5126,
			"count": 1501,
			"max": [ 0.9856839, 0.7317666 ],
			"min": [ 0.5150293, 0.6457168 ],
			"type": "VEC2"
		},
		{
			"bufferView": 3,
			"byteOffset": 0,
			"componentType": 5126,
			"count": 1501,
			"max": [ 0.9999374, 0.9994185, 0.9924436, -1 ],
			"min": [ -0.9854243, -0.9999502, -0.9971216, -1 ],
			"type": "VEC4"
		},
		{
			"bufferView": 0,
			"byteOffset": 0,
			"componentType": 5123,
			"count": 1728,
			"max": [ 1500 ],
			"min": [ 0 ],
			"type": "SCALAR"
		}
	],
	"buffers": [
		{
			"byteLength": 75504,
			"uri": "land002.bin"
		}
	],
	"bufferViews": [
		{
			"buffer": 0,
			"byteLength": 3456,
			"target": 34963,
			"byteOffset": 72048
		},
		{
			"buffer": 0,
			"byteLength": 12008,
			"target": 34962,
			"byteStride": 8,
			"byteOffset": 0
		},
		{
			"buffer": 0,
			"byteLength": 36024,
			"target": 34962,
			"byteStride": 12,
			"byteOffset": 12008
		},
		{
			"buffer": 0,
			"byteLength": 24016,
			"target": 34962,
			"byteStride": 16,
			"byteOffset": 48032
		}
	],
	"images": [
		{
			"uri": "Main Base.jpg"
		}
	],
	"materials": [
		{
			"pbrMetallicRoughness": {
				"baseColorTexture" : {
					"index" : 0,
					"texCoord" : 0
				},
				"baseColorFactor": [0.8, 0.8, 0.8, 1],
				"metallicFactor": 0,
				"roughnessFactor": 1
			},
			"emissiveFactor": [0, 0, 0],
			"doubleSided": false,
			"name": "Low Poly River Environment Material"
		}
	],
	"meshes": [
		{
			"name": "mesh_Landscape_27606land002",
			"primitives": [
				{
					"attributes": {
						"POSITION": 0,
						"NORMAL": 1,
						"TEXCOORD_0": 2,
						"TANGENT": 3
					},
					"indices": 4,
					"material": 0,
					"mode": 4
				}
			]
		}
	],
	"nodes": [
		{
			"name": "UnityGlTF_root",
			"children": [
				1
			]
		},
		{
			"name": "node_land002_-79132",
			"mesh": 0,
			"matrix": [1, 0, 0, 0, 0, 1, 0, 0, 0, 0, 1, 0, 0, 0, 0, 1]
		}
	],
	"samplers": [
		{
			"magFilter": 9729,
			"minFilter": 9985,
			"wrapS": 10497,
			"wrapT": 10497
		}
	],
	"scenes": [
		{
			"name":"defaultScene",
			"nodes": [
				0
			]
		}
	],
	"scene": 0,
	"textures": [
		{
			"sampler": 0,
			"source": 0
		}
	]
}