{
	"asset": {
		"generator": "Unity 2018.4.2f1",
		"extras": {
			"exporterVersion" : "2.2.1"
		},
		"version": "2.0"
	},
	"accessors": [
		{
			"bufferView": 2,
			"byteOffset": 0,
			"componentType": 5126,
			"count": 22032,
			"max": [ 0.004777316, 0.002658746, 0.002868932 ],
			"min": [ -0.009439088, -0.005083351, -0.0006406622 ],
			"type": "VEC3"
		},
		{
			"bufferView": 2,
			"byteOffset": 264384,
			"componentType": 5126,
			"count": 22032,
			"max": [ 0.9648779, 1, 0.964878 ],
			"min": [ -0.9648781, -1, -0.9690928 ],
			"type": "VEC3"
		},
		{
			"bufferView": 1,
			"byteOffset": 0,
			"componentType": 5126,
			"count": 22032,
			"max": [ 0.7637302, 0.3947835 ],
			"min": [ 0.4812008, 0.332382 ],
			"type": "VEC2"
		},
		{
			"bufferView": 3,
			"byteOffset": 0,
			"componentType": 5126,
			"count": 22032,
			"max": [ 1, 1, 1, 1 ],
			"min": [ -1, -0.9960322, -1, -1 ],
			"type": "VEC4"
		},
		{
			"bufferView": 0,
			"byteOffset": 0,
			"componentType": 5123,
			"count": 34344,
			"max": [ 22031 ],
			"min": [ 0 ],
			"type": "SCALAR"
		},
		{
			"bufferView": 2,
			"byteOffset": 528768,
			"componentType": 5126,
			"count": 24,
			"max": [ 0.5, 0.5, 0.5 ],
			"min": [ -0.5, -0.5, -0.5 ],
			"type": "VEC3"
		},
		{
			"bufferView": 2,
			"byteOffset": 529056,
			"componentType": 5126,
			"count": 24,
			"max": [ 1, 1, 1 ],
			"min": [ -1, -1, -1 ],
			"type": "VEC3"
		},
		{
			"bufferView": 1,
			"byteOffset": 176256,
			"componentType": 5126,
			"count": 24,
			"max": [ 1, 1 ],
			"min": [ 0, 0 ],
			"type": "VEC2"
		},
		{
			"bufferView": 1,
			"byteOffset": 176448,
			"componentType": 5126,
			"count": 24,
			"max": [ 0.9966581, 0.6528358 ],
			"min": [ 0.004055766, 0.004055766 ],
			"type": "VEC2"
		},
		{
			"bufferView": 3,
			"byteOffset": 352512,
			"componentType": 5126,
			"count": 24,
			"max": [ 0, 0, 1, 1 ],
			"min": [ -1, 0, -1, 1 ],
			"type": "VEC4"
		},
		{
			"bufferView": 0,
			"byteOffset": 68688,
			"componentType": 5123,
			"count": 36,
			"max": [ 23 ],
			"min": [ 0 ],
			"type": "SCALAR"
		},
		{
			"bufferView": 2,
			"byteOffset": 529344,
			"componentType": 5126,
			"count": 3009,
			"max": [ 1.976042, 1.959418, 4.669243E-08 ],
			"min": [ -1.976042, -1.959418, -3.540461 ],
			"type": "VEC3"
		},
		{
			"bufferView": 2,
			"byteOffset": 565452,
			"componentType": 5126,
			"count": 3009,
			"max": [ 0.9999956, 0.9999901, 1 ],
			"min": [ -0.9999975, -0.9999788, -0.9999171 ],
			"type": "VEC3"
		},
		{
			"bufferView": 1,
			"byteOffset": 176640,
			"componentType": 5126,
			"count": 3009,
			"max": [ 0.8500977, 0.7407227 ],
			"min": [ 0.06298828, 0.01611328 ],
			"type": "VEC2"
		},
		{
			"bufferView": 1,
			"byteOffset": 200712,
			"componentType": 5126,
			"count": 3009,
			"max": [ 0.9907227, 0.9958305 ],
			"min": [ 0.004169464, 0.004394531 ],
			"type": "VEC2"
		},
		{
			"bufferView": 1,
			"byteOffset": 224784,
			"componentType": 5126,
			"count": 3009,
			"max": [ 0.9814453, 0.9921875 ],
			"min": [ 0.0078125, 0.008300781 ],
			"type": "VEC2"
		},
		{
			"bufferView": 3,
			"byteOffset": 352896,
			"componentType": 5126,
			"count": 3009,
			"max": [ 1, 0.9997182, 0.9998945, 1 ],
			"min": [ -1, -0.9983925, -0.9999903, -1 ],
			"type": "VEC4"
		},
		{
			"bufferView": 0,
			"byteOffset": 68760,
			"componentType": 5123,
			"count": 3162,
			"max": [ 3008 ],
			"min": [ 0 ],
			"type": "SCALAR"
		},
		{
			"bufferView": 2,
			"byteOffset": 601560,
			"componentType": 5126,
			"count": 1754,
			"max": [ 0.004363701, 0.009496642, 0.006117741 ],
			"min": [ -0.004448709, -3.718001E-06, -0.008965415 ],
			"type": "VEC3"
		},
		{
			"bufferView": 2,
			"byteOffset": 622608,
			"componentType": 5126,
			"count": 1754,
			"max": [ 1, 1, 1 ],
			"min": [ -1, -1, -1 ],
			"type": "VEC3"
		},
		{
			"bufferView": 1,
			"byteOffset": 248856,
			"componentType": 5126,
			"count": 1754,
			"max": [ 0.9935778, 0.9572436 ],
			"min": [ 0.005298734, 0.004201651 ],
			"type": "VEC2"
		},
		{
			"bufferView": 3,
			"byteOffset": 401040,
			"componentType": 5126,
			"count": 1754,
			"max": [ 1, 1, 1, 1 ],
			"min": [ -1, -1, -1, -1 ],
			"type": "VEC4"
		},
		{
			"bufferView": 0,
			"byteOffset": 75084,
			"componentType": 5123,
			"count": 2886,
			"max": [ 1753 ],
			"min": [ 0 ],
			"type": "SCALAR"
		},
		{
			"bufferView": 2,
			"byteOffset": 643656,
			"componentType": 5126,
			"count": 612,
			"max": [ 0.00509429, 0.00707995, 0.00784866 ],
			"min": [ -0.005094172, -9.544304E-07, -0.01490378 ],
			"type": "VEC3"
		},
		{
			"bufferView": 2,
			"byteOffset": 651000,
			"componentType": 5126,
			"count": 612,
			"max": [ 1, 1, 1 ],
			"min": [ -1, -1, -1 ],
			"type": "VEC3"
		},
		{
			"bufferView": 1,
			"byteOffset": 262888,
			"componentType": 5126,
			"count": 612,
			"max": [ 0.9818581, 0.4889487 ],
			"min": [ 0.0855388, 0.03130436 ],
			"type": "VEC2"
		},
		{
			"bufferView": 3,
			"byteOffset": 429104,
			"componentType": 5126,
			"count": 612,
			"max": [ 1, 1, 1, 1 ],
			"min": [ -1, -1, -1, -1 ],
			"type": "VEC4"
		},
		{
			"bufferView": 0,
			"byteOffset": 80856,
			"componentType": 5123,
			"count": 1044,
			"max": [ 611 ],
			"min": [ 0 ],
			"type": "SCALAR"
		},
		{
			"bufferView": 2,
			"byteOffset": 658344,
			"componentType": 5126,
			"count": 1024,
			"max": [ 4.27391, 4.27391, 0.4681573 ],
			"min": [ -4.27391, -4.27391, -0.4287318 ],
			"type": "VEC3"
		},
		{
			"bufferView": 2,
			"byteOffset": 670632,
			"componentType": 5126,
			"count": 1024,
			"max": [ 0.6351854, 0.5439016, -0.7438285 ],
			"min": [ -0.5057745, -0.5355493, -0.9998723 ],
			"type": "VEC3"
		},
		{
			"bufferView": 1,
			"byteOffset": 267784,
			"componentType": 5126,
			"count": 1024,
			"max": [ 0.9360352, 0.9595642 ],
			"min": [ 0.03738403, 0.125 ],
			"type": "VEC2"
		},
		{
			"bufferView": 1,
			"byteOffset": 275976,
			"componentType": 5126,
			"count": 1024,
			"max": [ 0.96875, 0.9921875 ],
			"min": [ 0.0078125, 0.009277344 ],
			"type": "VEC2"
		},
		{
			"bufferView": 3,
			"byteOffset": 438896,
			"componentType": 5126,
			"count": 1024,
			"max": [ 0.9997355, 0.9998754, 0.548443, 1 ],
			"min": [ -0.9995993, -0.9999932, -0.6516663, 1 ],
			"type": "VEC4"
		},
		{
			"bufferView": 0,
			"byteOffset": 82944,
			"componentType": 5123,
			"count": 1026,
			"max": [ 1023 ],
			"min": [ 0 ],
			"type": "SCALAR"
		}
	],
	"buffers": [
		{
			"byteLength": 1507364,
			"uri": "scene004.bin"
		}
	],
	"bufferViews": [
		{
			"buffer": 0,
			"byteLength": 84996,
			"target": 34963,
			"byteOffset": 1422368
		},
		{
			"buffer": 0,
			"byteLength": 284168,
			"target": 34962,
			"byteStride": 8,
			"byteOffset": 0
		},
		{
			"buffer": 0,
			"byteLength": 682920,
			"target": 34962,
			"byteStride": 12,
			"byteOffset": 284168
		},
		{
			"buffer": 0,
			"byteLength": 455280,
			"target": 34962,
			"byteStride": 16,
			"byteOffset": 967088
		}
	],
	"images": [
		{
			"uri": "SPW_Farm_Crop.jpg"
		},
		{
			"uri": "TropicalIsland01Diffuse.jpg"
		},
		{
			"uri": "SPW_Vehicle_Land_Tractor_Color03.jpg"
		},
		{
			"uri": "Water01Diffuse.jpg"
		}
	],
	"materials": [
		{
			"pbrMetallicRoughness": {
				"baseColorTexture" : {
					"index" : 0,
					"texCoord" : 0
				},
				"baseColorFactor": [1, 1, 1, 1],
				"metallicFactor": 0,
				"roughnessFactor": 1
			},
			"emissiveFactor": [0, 0, 0],
			"doubleSided": false,
			"name": "SPW_Farm_Crop"
		},
		{
			"pbrMetallicRoughness": {
				"baseColorFactor": [1, 1, 1, 1],
				"metallicFactor": 0,
				"roughnessFactor": 0.5
			},
			"emissiveFactor": [0, 0, 0],
			"doubleSided": false,
			"name": "Default-Material"
		},
		{
			"pbrMetallicRoughness": {
				"baseColorTexture" : {
					"index" : 1,
					"texCoord" : 0
				},
				"baseColorFactor": [0.8, 0.8, 0.8, 1],
				"metallicFactor": 0,
				"roughnessFactor": 1
			},
			"emissiveFactor": [0, 0, 0],
			"doubleSided": false,
			"name": "TropicalIsland01Mat"
		},
		{
			"pbrMetallicRoughness": {
				"baseColorTexture" : {
					"index" : 2,
					"texCoord" : 0
				},
				"baseColorFactor": [1, 1, 1, 1],
				"metallicFactor": 0,
				"roughnessFactor": 1
			},
			"emissiveFactor": [0, 0, 0],
			"doubleSided": false,
			"name": "SPW_Vehicle_Land_Tractor_Color03"
		},
		{
			"pbrMetallicRoughness": {
				"baseColorTexture" : {
					"index" : 3,
					"texCoord" : 0
				},
				"baseColorFactor": [0.8, 0.8, 0.8, 1],
				"metallicFactor": 0,
				"roughnessFactor": 1
			},
			"emissiveFactor": [0, 0, 0],
			"doubleSided": false,
			"name": "Water01Mat"
		}
	],
	"meshes": [
		{
			"name": "mesh_Watermelongroup_36960Watermelongroup",
			"primitives": [
				{
					"attributes": {
						"POSITION": 0,
						"NORMAL": 1,
						"TEXCOORD_0": 2,
						"TANGENT": 3
					},
					"indices": 4,
					"material": 0,
					"mode": 4
				}
			]
		},
		{
			"name": "mesh_Cube_680collider",
			"primitives": [
				{
					"attributes": {
						"POSITION": 5,
						"NORMAL": 6,
						"TEXCOORD_0": 7,
						"TEXCOORD_1": 8,
						"TANGENT": 9
					},
					"indices": 10,
					"material": 1,
					"mode": 4
				}
			]
		},
		{
			"name": "mesh_Manmade04_18746Manmade04",
			"primitives": [
				{
					"attributes": {
						"POSITION": 11,
						"NORMAL": 12,
						"TEXCOORD_0": 13,
						"TEXCOORD_1": 14,
						"TEXCOORD_2": 15,
						"TANGENT": 16
					},
					"indices": 17,
					"material": 2,
					"mode": 4
				}
			]
		},
		{
			"name": "mesh_SPW_Vehicle_Land_Static_Tractor_Color03_19128SPW_Vehicle_Land_Static_Tractor_Color03",
			"primitives": [
				{
					"attributes": {
						"POSITION": 18,
						"NORMAL": 19,
						"TEXCOORD_0": 20,
						"TANGENT": 21
					},
					"indices": 22,
					"material": 3,
					"mode": 4
				}
			]
		},
		{
			"name": "mesh_SPW_Vehicle_Land_Static_Tractor_Trailer_Color03_19130SPW_Vehicle_Land_Static_Tractor_Trailer_Color03",
			"primitives": [
				{
					"attributes": {
						"POSITION": 23,
						"NORMAL": 24,
						"TEXCOORD_0": 25,
						"TANGENT": 26
					},
					"indices": 27,
					"material": 3,
					"mode": 4
				}
			]
		},
		{
			"name": "mesh_Water01_19140Water01",
			"primitives": [
				{
					"attributes": {
						"POSITION": 28,
						"NORMAL": 29,
						"TEXCOORD_0": 30,
						"TEXCOORD_1": 31,
						"TANGENT": 32
					},
					"indices": 33,
					"material": 4,
					"mode": 4
				}
			]
		}
	],
	"nodes": [
		{
			"name": "UnityGlTF_root",
			"children": [
				3
			]
		},
		{
			"name": "node_Watermelongroup_-21452",
			"mesh": 0,
			"translation": [ 1.886394, 0.4216261, 22.02647],
			"scale": [ 100, 100.0001, 100.0001],
			"rotation": [0.6178421, 0.3439056, 0.3439056, -0.6178421]
		},
		{
			"name": "node_collider_30672",
			"mesh": 1,
			"scale": [ 0.01, 0.01, 0.01]
		},
		{
			"name": "node_scene004_33304",
			"children": [
				1,
				4,
				5,
				6,
				7,
				2
			],
			"matrix": [1, 0, 0, 0, 0, 1, 0, 0, 0, 0, 1, 0, 0, 0, 0, 1]
		},
		{
			"name": "node_Manmade04_34114",
			"mesh": 2,
			"translation": [ -10.65624, 2.229707, 20.39157],
			"rotation": [0.4318397, 0.5599236, -0.5599236, 0.4318397]
		},
		{
			"name": "node_SPW_Vehicle_Land_Static_Tractor_Color03_34266",
			"mesh": 3,
			"translation": [ 0.6631349, -0.09541279, 20.22814],
			"scale": [ 100, 100, 100],
			"rotation": [-2.101967E-08, 0.2739364, 5.98707E-09, 0.9617479]
		},
		{
			"name": "node_SPW_Vehicle_Land_Static_Tractor_Trailer_Color03_34232",
			"mesh": 4,
			"translation": [ 1.724852, -0.09541279, 21.94231],
			"scale": [ 100, 100, 100],
			"rotation": [-2.101967E-08, 0.2739364, 5.98707E-09, 0.9617479]
		},
		{
			"name": "node_Water01_34238",
			"mesh": 5,
			"translation": [ -12.17, -1.05, 18.94],
			"rotation": [0.1693081, -0.6847539, 0.6820094, 0.1931583]
		}
	],
	"samplers": [
		{
			"magFilter": 9729,
			"minFilter": 9985,
			"wrapS": 10497,
			"wrapT": 10497
		}
	],
	"scenes": [
		{
			"name":"defaultScene",
			"nodes": [
				0
			]
		}
	],
	"scene": 0,
	"textures": [
		{
			"sampler": 0,
			"source": 0
		},
		{
			"sampler": 0,
			"source": 1
		},
		{
			"sampler": 0,
			"source": 2
		},
		{
			"sampler": 0,
			"source": 3
		}
	]
}