{
	"asset": {
		"generator": "Unity 2018.4.2f1",
		"extras": {
			"exporterVersion" : "2.2.1"
		},
		"version": "2.0"
	},
	"accessors": [
		{
			"bufferView": 2,
			"byteOffset": 0,
			"componentType": 5126,
			"count": 1472,
			"max": [ 1.397964, 3.477294, 1.421195 ],
			"min": [ -1.397964, -3.477294, -1.421195 ],
			"type": "VEC3"
		},
		{
			"bufferView": 2,
			"byteOffset": 17664,
			"componentType": 5126,
			"count": 1472,
			"max": [ 0.9980358, 1, 0.9994835 ],
			"min": [ -0.9989796, -0.9999028, -0.9993143 ],
			"type": "VEC3"
		},
		{
			"bufferView": 1,
			"byteOffset": 0,
			"componentType": 5126,
			"count": 1472,
			"max": [ 0.998999, 0.998999 ],
			"min": [ 0.001001, 0.001001 ],
			"type": "VEC2"
		},
		{
			"bufferView": 3,
			"byteOffset": 0,
			"componentType": 5126,
			"count": 1472,
			"max": [ 0.9960989, 0.997784, 0.9991305, 1 ],
			"min": [ -0.9987381, -0.9996837, -0.9975574, -1 ],
			"type": "VEC4"
		},
		{
			"bufferView": 0,
			"byteOffset": 0,
			"componentType": 5123,
			"count": 132,
			"max": [ 79 ],
			"min": [ 0 ],
			"type": "SCALAR"
		},
		{
			"bufferView": 0,
			"byteOffset": 264,
			"componentType": 5123,
			"count": 2124,
			"max": [ 1471 ],
			"min": [ 80 ],
			"type": "SCALAR"
		}
	],
	"buffers": [
		{
			"byteLength": 75168,
			"uri": "tree008.bin"
		}
	],
	"bufferViews": [
		{
			"buffer": 0,
			"byteLength": 4512,
			"target": 34963,
			"byteOffset": 70656
		},
		{
			"buffer": 0,
			"byteLength": 11776,
			"target": 34962,
			"byteStride": 8,
			"byteOffset": 0
		},
		{
			"buffer": 0,
			"byteLength": 35328,
			"target": 34962,
			"byteStride": 12,
			"byteOffset": 11776
		},
		{
			"buffer": 0,
			"byteLength": 23552,
			"target": 34962,
			"byteStride": 16,
			"byteOffset": 47104
		}
	],
	"materials": [
		{
			"pbrMetallicRoughness": {
				"baseColorFactor": [0.57, 0.34, 0.16, 1],
				"metallicFactor": 0,
				"roughnessFactor": 1
			},
			"emissiveFactor": [0, 0, 0],
			"doubleSided": false,
			"name": "_Bridge1SG1"
		},
		{
			"pbrMetallicRoughness": {
				"baseColorFactor": [0.3220915, 0.6901961, 0.2760784, 1],
				"metallicFactor": 0,
				"roughnessFactor": 1
			},
			"emissiveFactor": [0, 0, 0],
			"doubleSided": false,
			"name": "Green"
		}
	],
	"meshes": [
		{
			"name": "mesh__Tree3_3_27590tree008",
			"primitives": [
				{
					"attributes": {
						"POSITION": 0,
						"NORMAL": 1,
						"TEXCOORD_0": 2,
						"TANGENT": 3
					},
					"indices": 4,
					"material": 0,
					"mode": 4
				},
				{
					"attributes": {
						"POSITION": 0,
						"NORMAL": 1,
						"TEXCOORD_0": 2,
						"TANGENT": 3
					},
					"indices": 5,
					"material": 1,
					"mode": 4
				}
			]
		}
	],
	"nodes": [
		{
			"name": "UnityGlTF_root",
			"children": [
				1
			]
		},
		{
			"name": "node_tree008_-199436",
			"children": [
				2
			],
			"matrix": [1, 0, 0, 0, 0, 1, 0, 0, 0, 0, 1, 0, 0, 0, 0, 1]
		},
		{
			"name": "node_tree008_-198474",
			"mesh": 0,
			"translation": [ 0, 2.76, 0],
			"scale": [ 0.805, 0.805, 0.805],
			"rotation": [2.331599E-17, 0, 4.251395E-17, 1]
		}
	],
	"scenes": [
		{
			"name":"defaultScene",
			"nodes": [
				0
			]
		}
	],
	"scene": 0
}