{
	"asset": {
		"generator": "Unity 2018.4.2f1",
		"extras": {
			"exporterVersion" : "2.2.1"
		},
		"version": "2.0"
	},
	"accessors": [
		{
			"bufferView": 2,
			"byteOffset": 0,
			"componentType": 5126,
			"count": 1908,
			"max": [ 7.326746, 4.286026, -1.068496E-16 ],
			"min": [ -7.326746, -4.286026, -6.317813 ],
			"type": "VEC3"
		},
		{
			"bufferView": 2,
			"byteOffset": 22896,
			"componentType": 5126,
			"count": 1908,
			"max": [ 0.999979, 0.9981679, 0.9990553 ],
			"min": [ -0.9998176, -0.9940374, -0.9982879 ],
			"type": "VEC3"
		},
		{
			"bufferView": 1,
			"byteOffset": 0,
			"componentType": 5126,
			"count": 1908,
			"max": [ 0.1762695, 0.3022461 ],
			"min": [ 0.03656006, 0.2495117 ],
			"type": "VEC2"
		},
		{
			"bufferView": 1,
			"byteOffset": 15264,
			"componentType": 5126,
			"count": 1908,
			"max": [ 0.9912109, 0.9914322 ],
			"min": [ 0.00856781, 0.008789063 ],
			"type": "VEC2"
		},
		{
			"bufferView": 3,
			"byteOffset": 0,
			"componentType": 5126,
			"count": 1908,
			"max": [ 1, 0, 0, 1 ],
			"min": [ 1, 0, 0, 1 ],
			"type": "VEC4"
		},
		{
			"bufferView": 0,
			"byteOffset": 0,
			"componentType": 5123,
			"count": 2064,
			"max": [ 1907 ],
			"min": [ 0 ],
			"type": "SCALAR"
		}
	],
	"buffers": [
		{
			"byteLength": 110976,
			"uri": "tree002.bin"
		}
	],
	"bufferViews": [
		{
			"buffer": 0,
			"byteLength": 4128,
			"target": 34963,
			"byteOffset": 106848
		},
		{
			"buffer": 0,
			"byteLength": 30528,
			"target": 34962,
			"byteStride": 8,
			"byteOffset": 0
		},
		{
			"buffer": 0,
			"byteLength": 45792,
			"target": 34962,
			"byteStride": 12,
			"byteOffset": 30528
		},
		{
			"buffer": 0,
			"byteLength": 30528,
			"target": 34962,
			"byteStride": 16,
			"byteOffset": 76320
		}
	],
	"images": [
		{
			"uri": "T_PolygonFarm_01_A.jpg"
		}
	],
	"materials": [
		{
			"pbrMetallicRoughness": {
				"baseColorTexture" : {
					"index" : 0,
					"texCoord" : 0
				},
				"baseColorFactor": [1, 1, 1, 1],
				"metallicFactor": 0,
				"roughnessFactor": 1
			},
			"emissiveFactor": [0, 0, 0],
			"doubleSided": false,
			"name": "Mat_PolygonFarm_01_A"
		}
	],
	"meshes": [
		{
			"name": "mesh_SM_Generic_Tree_Patch_02_27856tree002",
			"primitives": [
				{
					"attributes": {
						"POSITION": 0,
						"NORMAL": 1,
						"TEXCOORD_0": 2,
						"TEXCOORD_1": 3,
						"TANGENT": 4
					},
					"indices": 5,
					"material": 0,
					"mode": 4
				}
			]
		}
	],
	"nodes": [
		{
			"name": "UnityGlTF_root",
			"children": [
				2
			]
		},
		{
			"name": "node_tree002_-146872",
			"mesh": 0,
			"rotation": [-0.7071068, 0, 0, -0.7071068]
		},
		{
			"name": "node_tree002_-147644",
			"children": [
				1
			],
			"matrix": [1, 0, 0, 0, 0, 1, 0, 0, 0, 0, 1, 0, 0, 0, 0, 1]
		}
	],
	"samplers": [
		{
			"magFilter": 9729,
			"minFilter": 9985,
			"wrapS": 10497,
			"wrapT": 10497
		}
	],
	"scenes": [
		{
			"name":"defaultScene",
			"nodes": [
				0
			]
		}
	],
	"scene": 0,
	"textures": [
		{
			"sampler": 0,
			"source": 0
		}
	]
}