{
	"asset": {
		"generator": "Unity 2018.4.2f1",
		"extras": {
			"exporterVersion" : "2.2.1"
		},
		"version": "2.0"
	},
	"accessors": [
		{
			"bufferView": 2,
			"byteOffset": 0,
			"componentType": 5126,
			"count": 3638,
			"max": [ 0.007048659, 0.03423675, 0.009097864 ],
			"min": [ -0.01253314, 3.934787E-05, -0.01070623 ],
			"type": "VEC3"
		},
		{
			"bufferView": 2,
			"byteOffset": 43656,
			"componentType": 5126,
			"count": 3638,
			"max": [ 0.9977636, 0.9961734, 0.9995537 ],
			"min": [ -0.9965922, -0.9961354, -0.9990664 ],
			"type": "VEC3"
		},
		{
			"bufferView": 1,
			"byteOffset": 0,
			"componentType": 5126,
			"count": 3638,
			"max": [ 0.9867599, 0.7470148 ],
			"min": [ 0.5053277, 0.6328052 ],
			"type": "VEC2"
		},
		{
			"bufferView": 3,
			"byteOffset": 0,
			"componentType": 5126,
			"count": 3638,
			"max": [ 0.9983631, 0.9971122, 0.9944533, 1 ],
			"min": [ -0.9920031, -0.999993, -0.9992639, 1 ],
			"type": "VEC4"
		},
		{
			"bufferView": 0,
			"byteOffset": 0,
			"componentType": 5123,
			"count": 6558,
			"max": [ 3637 ],
			"min": [ 0 ],
			"type": "SCALAR"
		}
	],
	"buffers": [
		{
			"byteLength": 187740,
			"uri": "tree006.bin"
		}
	],
	"bufferViews": [
		{
			"buffer": 0,
			"byteLength": 13116,
			"target": 34963,
			"byteOffset": 174624
		},
		{
			"buffer": 0,
			"byteLength": 29104,
			"target": 34962,
			"byteStride": 8,
			"byteOffset": 0
		},
		{
			"buffer": 0,
			"byteLength": 87312,
			"target": 34962,
			"byteStride": 12,
			"byteOffset": 29104
		},
		{
			"buffer": 0,
			"byteLength": 58208,
			"target": 34962,
			"byteStride": 16,
			"byteOffset": 116416
		}
	],
	"images": [
		{
			"uri": "Main Base.jpg"
		}
	],
	"materials": [
		{
			"pbrMetallicRoughness": {
				"baseColorTexture" : {
					"index" : 0,
					"texCoord" : 0
				},
				"baseColorFactor": [0.8, 0.8, 0.8, 1],
				"metallicFactor": 0,
				"roughnessFactor": 1
			},
			"emissiveFactor": [0, 0, 0],
			"doubleSided": false,
			"name": "Low Poly River Environment Material"
		}
	],
	"meshes": [
		{
			"name": "mesh_M_Coconut_Tree_3_27620tree006",
			"primitives": [
				{
					"attributes": {
						"POSITION": 0,
						"NORMAL": 1,
						"TEXCOORD_0": 2,
						"TANGENT": 3
					},
					"indices": 4,
					"material": 0,
					"mode": 4
				}
			]
		}
	],
	"nodes": [
		{
			"name": "UnityGlTF_root",
			"children": [
				2
			]
		},
		{
			"name": "node_tree006_-195314",
			"mesh": 0,
			"translation": [ -0.043, 0, 0],
			"scale": [ 100, 100, 100]
		},
		{
			"name": "node_tree006_-196234",
			"children": [
				1
			],
			"matrix": [1, 0, 0, 0, 0, 1, 0, 0, 0, 0, 1, 0, 0, 0, 0, 1]
		}
	],
	"samplers": [
		{
			"magFilter": 9729,
			"minFilter": 9985,
			"wrapS": 10497,
			"wrapT": 10497
		}
	],
	"scenes": [
		{
			"name":"defaultScene",
			"nodes": [
				0
			]
		}
	],
	"scene": 0,
	"textures": [
		{
			"sampler": 0,
			"source": 0
		}
	]
}