{
	"asset": {
		"generator": "Unity 2018.4.2f1",
		"extras": {
			"exporterVersion" : "2.2.1"
		},
		"version": "2.0"
	},
	"accessors": [
		{
			"bufferView": 2,
			"byteOffset": 0,
			"componentType": 5126,
			"count": 22032,
			"max": [ 0.004777316, 0.002658746, 0.002868932 ],
			"min": [ -0.009439088, -0.005083351, -0.0006406622 ],
			"type": "VEC3"
		},
		{
			"bufferView": 2,
			"byteOffset": 264384,
			"componentType": 5126,
			"count": 22032,
			"max": [ 0.9648779, 1, 0.964878 ],
			"min": [ -0.9648781, -1, -0.9690928 ],
			"type": "VEC3"
		},
		{
			"bufferView": 1,
			"byteOffset": 0,
			"componentType": 5126,
			"count": 22032,
			"max": [ 0.7637302, 0.3947835 ],
			"min": [ 0.4812008, 0.332382 ],
			"type": "VEC2"
		},
		{
			"bufferView": 3,
			"byteOffset": 0,
			"componentType": 5126,
			"count": 22032,
			"max": [ 1, 1, 1, 1 ],
			"min": [ -1, -0.9960322, -1, -1 ],
			"type": "VEC4"
		},
		{
			"bufferView": 0,
			"byteOffset": 0,
			"componentType": 5123,
			"count": 34344,
			"max": [ 22031 ],
			"min": [ 0 ],
			"type": "SCALAR"
		}
	],
	"buffers": [
		{
			"byteLength": 1126224,
			"uri": "Watermelongroup.bin"
		}
	],
	"bufferViews": [
		{
			"buffer": 0,
			"byteLength": 68688,
			"target": 34963,
			"byteOffset": 1057536
		},
		{
			"buffer": 0,
			"byteLength": 176256,
			"target": 34962,
			"byteStride": 8,
			"byteOffset": 0
		},
		{
			"buffer": 0,
			"byteLength": 528768,
			"target": 34962,
			"byteStride": 12,
			"byteOffset": 176256
		},
		{
			"buffer": 0,
			"byteLength": 352512,
			"target": 34962,
			"byteStride": 16,
			"byteOffset": 705024
		}
	],
	"images": [
		{
			"uri": "Assets/YJthreejs/farm/farm_0807.fbm/SPW_Farm_Crop.jpg"
		}
	],
	"materials": [
		{
			"pbrMetallicRoughness": {
				"baseColorTexture" : {
					"index" : 0,
					"texCoord" : 0
				},
				"baseColorFactor": [1, 1, 1, 1],
				"metallicFactor": 0,
				"roughnessFactor": 1
			},
			"emissiveFactor": [0, 0, 0],
			"doubleSided": false,
			"name": "SPW_Farm_Crop"
		}
	],
	"meshes": [
		{
			"name": "mesh_Watermelongroup_36960Watermelongroup",
			"primitives": [
				{
					"attributes": {
						"POSITION": 0,
						"NORMAL": 1,
						"TEXCOORD_0": 2,
						"TANGENT": 3
					},
					"indices": 4,
					"material": 0,
					"mode": 4
				}
			]
		}
	],
	"nodes": [
		{
			"name": "UnityGlTF_root",
			"children": [
				1
			]
		},
		{
			"name": "node_Watermelongroup_-21452",
			"mesh": 0,
			"matrix": [52.69157, -5.960464E-06, 84.99174, 0, 84.99179, 5.960467E-06, -52.6916, 0, -5.960468E-06, 100.0001, 5.960468E-06, 0, 1.886394, 0.4216261, 22.02647, 1]
		}
	],
	"samplers": [
		{
			"magFilter": 9729,
			"minFilter": 9985,
			"wrapS": 10497,
			"wrapT": 10497
		}
	],
	"scenes": [
		{
			"name":"defaultScene",
			"nodes": [
				0
			]
		}
	],
	"scene": 0,
	"textures": [
		{
			"sampler": 0,
			"source": 0
		}
	]
}