{
	"asset": {
		"generator": "Unity 2018.4.2f1",
		"extras": {
			"exporterVersion" : "2.2.1"
		},
		"version": "2.0"
	},
	"accessors": [
		{
			"bufferView": 2,
			"byteOffset": 0,
			"componentType": 5126,
			"count": 24,
			"max": [ 0.5, 0.5, 0.5 ],
			"min": [ -0.5, -0.5, -0.5 ],
			"type": "VEC3"
		},
		{
			"bufferView": 2,
			"byteOffset": 288,
			"componentType": 5126,
			"count": 24,
			"max": [ 1, 1, 1 ],
			"min": [ -1, -1, -1 ],
			"type": "VEC3"
		},
		{
			"bufferView": 1,
			"byteOffset": 0,
			"componentType": 5126,
			"count": 24,
			"max": [ 1, 1 ],
			"min": [ 0, 0 ],
			"type": "VEC2"
		},
		{
			"bufferView": 1,
			"byteOffset": 192,
			"componentType": 5126,
			"count": 24,
			"max": [ 0.9966581, 0.6528358 ],
			"min": [ 0.004055766, 0.004055766 ],
			"type": "VEC2"
		},
		{
			"bufferView": 3,
			"byteOffset": 0,
			"componentType": 5126,
			"count": 24,
			"max": [ 0, 0, 1, 1 ],
			"min": [ -1, 0, -1, 1 ],
			"type": "VEC4"
		},
		{
			"bufferView": 0,
			"byteOffset": 0,
			"componentType": 5123,
			"count": 36,
			"max": [ 23 ],
			"min": [ 0 ],
			"type": "SCALAR"
		},
		{
			"bufferView": 2,
			"byteOffset": 576,
			"componentType": 5126,
			"count": 707,
			"max": [ -3.979988, 0.4804499, -2.451011 ],
			"min": [ -4.549299, 0.09376646, -2.716608 ],
			"type": "VEC3"
		},
		{
			"bufferView": 2,
			"byteOffset": 9060,
			"componentType": 5126,
			"count": 707,
			"max": [ 0.9958736, 0.9900953, 0.9969935 ],
			"min": [ -0.9968349, -1, -0.9995918 ],
			"type": "VEC3"
		},
		{
			"bufferView": 1,
			"byteOffset": 384,
			"componentType": 5126,
			"count": 707,
			"max": [ 0.972677, 0.997425 ],
			"min": [ 0.00039, -0.0007019043 ],
			"type": "VEC2"
		},
		{
			"bufferView": 3,
			"byteOffset": 384,
			"componentType": 5126,
			"count": 707,
			"max": [ 0.9947253, 0.986367, 0.9959918, 1 ],
			"min": [ -0.9995079, -0.9998789, -0.9967013, -1 ],
			"type": "VEC4"
		},
		{
			"bufferView": 0,
			"byteOffset": 72,
			"componentType": 5123,
			"count": 720,
			"max": [ 391 ],
			"min": [ 0 ],
			"type": "SCALAR"
		},
		{
			"bufferView": 0,
			"byteOffset": 1512,
			"componentType": 5123,
			"count": 960,
			"max": [ 670 ],
			"min": [ 73 ],
			"type": "SCALAR"
		},
		{
			"bufferView": 0,
			"byteOffset": 3432,
			"componentType": 5123,
			"count": 96,
			"max": [ 706 ],
			"min": [ 671 ],
			"type": "SCALAR"
		}
	],
	"buffers": [
		{
			"byteLength": 38904,
			"uri": "cattle001.bin"
		}
	],
	"bufferViews": [
		{
			"buffer": 0,
			"byteLength": 3624,
			"target": 34963,
			"byteOffset": 35280
		},
		{
			"buffer": 0,
			"byteLength": 6040,
			"target": 34962,
			"byteStride": 8,
			"byteOffset": 0
		},
		{
			"buffer": 0,
			"byteLength": 17544,
			"target": 34962,
			"byteStride": 12,
			"byteOffset": 6040
		},
		{
			"buffer": 0,
			"byteLength": 11696,
			"target": 34962,
			"byteStride": 16,
			"byteOffset": 23584
		}
	],
	"materials": [
		{
			"pbrMetallicRoughness": {
				"baseColorFactor": [1, 1, 1, 1],
				"metallicFactor": 0,
				"roughnessFactor": 0.5
			},
			"emissiveFactor": [0, 0, 0],
			"doubleSided": false,
			"name": "Default-Material"
		},
		{
			"pbrMetallicRoughness": {
				"baseColorFactor": [0.039, 0.091, 0.13, 1],
				"metallicFactor": 0,
				"roughnessFactor": 1
			},
			"emissiveFactor": [0, 0, 0],
			"doubleSided": false,
			"name": "_FarmerSG1"
		},
		{
			"pbrMetallicRoughness": {
				"baseColorFactor": [0.97, 0.97, 0.97, 1],
				"metallicFactor": 0,
				"roughnessFactor": 1
			},
			"emissiveFactor": [0, 0, 0],
			"doubleSided": false,
			"name": "_RavenSG3"
		},
		{
			"pbrMetallicRoughness": {
				"baseColorFactor": [0.1, 0.1, 0.1, 1],
				"metallicFactor": 0,
				"roughnessFactor": 1
			},
			"emissiveFactor": [0, 0, 0],
			"doubleSided": false,
			"name": "_RavenSG4"
		}
	],
	"meshes": [
		{
			"name": "mesh_Cube_680collider (8)",
			"primitives": [
				{
					"attributes": {
						"POSITION": 0,
						"NORMAL": 1,
						"TEXCOORD_0": 2,
						"TEXCOORD_1": 3,
						"TANGENT": 4
					},
					"indices": 5,
					"material": 0,
					"mode": 4
				}
			]
		},
		{
			"name": "mesh__Map_3CowCowAnimationsGroup_Animators_18588cattle001",
			"primitives": [
				{
					"attributes": {
						"POSITION": 6,
						"NORMAL": 7,
						"TEXCOORD_0": 8,
						"TANGENT": 9
					},
					"indices": 10,
					"material": 1,
					"mode": 4
				},
				{
					"attributes": {
						"POSITION": 6,
						"NORMAL": 7,
						"TEXCOORD_0": 8,
						"TANGENT": 9
					},
					"indices": 11,
					"material": 2,
					"mode": 4
				},
				{
					"attributes": {
						"POSITION": 6,
						"NORMAL": 7,
						"TEXCOORD_0": 8,
						"TANGENT": 9
					},
					"indices": 12,
					"material": 3,
					"mode": 4
				}
			]
		}
	],
	"nodes": [
		{
			"name": "UnityGlTF_root",
			"children": [
				2
			]
		},
		{
			"name": "node_collider (8)_-87072",
			"mesh": 0,
			"scale": [ 0.01, 0.01, 0.01]
		},
		{
			"name": "node_cattle001_-87070",
			"children": [
				1,
				3
			],
			"matrix": [1, 0, 0, 0, 0, 1, 0, 0, 0, 0, 1, 0, 0, 0, 0, 1]
		},
		{
			"name": "node_cattle001_-87404",
			"mesh": 1,
			"translation": [ 4.803481, -0.132, 4.998],
			"scale": [ 1.3927, 1.3927, 1.3927],
			"rotation": [2.867657E-17, -0.1308017, 3.909893E-17, 0.9914086]
		}
	],
	"scenes": [
		{
			"name":"defaultScene",
			"nodes": [
				0
			]
		}
	],
	"scene": 0
}