{
	"asset": {
		"generator": "Unity 2018.4.2f1",
		"extras": {
			"exporterVersion" : "2.2.1"
		},
		"version": "2.0"
	},
	"accessors": [
		{
			"bufferView": 2,
			"byteOffset": 0,
			"componentType": 5126,
			"count": 24,
			"max": [ 0.5, 0.5, 0.5 ],
			"min": [ -0.5, -0.5, -0.5 ],
			"type": "VEC3"
		},
		{
			"bufferView": 2,
			"byteOffset": 288,
			"componentType": 5126,
			"count": 24,
			"max": [ 1, 1, 1 ],
			"min": [ -1, -1, -1 ],
			"type": "VEC3"
		},
		{
			"bufferView": 1,
			"byteOffset": 0,
			"componentType": 5126,
			"count": 24,
			"max": [ 1, 1 ],
			"min": [ 0, 0 ],
			"type": "VEC2"
		},
		{
			"bufferView": 1,
			"byteOffset": 192,
			"componentType": 5126,
			"count": 24,
			"max": [ 0.9966581, 0.6528358 ],
			"min": [ 0.004055766, 0.004055766 ],
			"type": "VEC2"
		},
		{
			"bufferView": 3,
			"byteOffset": 0,
			"componentType": 5126,
			"count": 24,
			"max": [ 0, 0, 1, 1 ],
			"min": [ -1, 0, -1, 1 ],
			"type": "VEC4"
		},
		{
			"bufferView": 0,
			"byteOffset": 0,
			"componentType": 5123,
			"count": 36,
			"max": [ 23 ],
			"min": [ 0 ],
			"type": "SCALAR"
		},
		{
			"bufferView": 2,
			"byteOffset": 576,
			"componentType": 5126,
			"count": 24,
			"max": [ 0.5, 0.5, 0.5 ],
			"min": [ -0.5, -0.5, -0.5 ],
			"type": "VEC3"
		},
		{
			"bufferView": 2,
			"byteOffset": 864,
			"componentType": 5126,
			"count": 24,
			"max": [ 1, 1, 1 ],
			"min": [ -1, -1, -1 ],
			"type": "VEC3"
		},
		{
			"bufferView": 1,
			"byteOffset": 384,
			"componentType": 5126,
			"count": 24,
			"max": [ 1, 1 ],
			"min": [ 0, 0 ],
			"type": "VEC2"
		},
		{
			"bufferView": 1,
			"byteOffset": 576,
			"componentType": 5126,
			"count": 24,
			"max": [ 0.9966581, 0.6528358 ],
			"min": [ 0.004055766, 0.004055766 ],
			"type": "VEC2"
		},
		{
			"bufferView": 3,
			"byteOffset": 384,
			"componentType": 5126,
			"count": 24,
			"max": [ 0, 0, 1, 1 ],
			"min": [ -1, 0, -1, 1 ],
			"type": "VEC4"
		},
		{
			"bufferView": 0,
			"byteOffset": 72,
			"componentType": 5123,
			"count": 36,
			"max": [ 23 ],
			"min": [ 0 ],
			"type": "SCALAR"
		},
		{
			"bufferView": 2,
			"byteOffset": 1152,
			"componentType": 5126,
			"count": 24,
			"max": [ 0.5, 0.5, 0.5 ],
			"min": [ -0.5, -0.5, -0.5 ],
			"type": "VEC3"
		},
		{
			"bufferView": 2,
			"byteOffset": 1440,
			"componentType": 5126,
			"count": 24,
			"max": [ 1, 1, 1 ],
			"min": [ -1, -1, -1 ],
			"type": "VEC3"
		},
		{
			"bufferView": 1,
			"byteOffset": 768,
			"componentType": 5126,
			"count": 24,
			"max": [ 1, 1 ],
			"min": [ 0, 0 ],
			"type": "VEC2"
		},
		{
			"bufferView": 1,
			"byteOffset": 960,
			"componentType": 5126,
			"count": 24,
			"max": [ 0.9966581, 0.6528358 ],
			"min": [ 0.004055766, 0.004055766 ],
			"type": "VEC2"
		},
		{
			"bufferView": 3,
			"byteOffset": 768,
			"componentType": 5126,
			"count": 24,
			"max": [ 0, 0, 1, 1 ],
			"min": [ -1, 0, -1, 1 ],
			"type": "VEC4"
		},
		{
			"bufferView": 0,
			"byteOffset": 144,
			"componentType": 5123,
			"count": 36,
			"max": [ 23 ],
			"min": [ 0 ],
			"type": "SCALAR"
		},
		{
			"bufferView": 2,
			"byteOffset": 1728,
			"componentType": 5126,
			"count": 88,
			"max": [ 0.5000001, 1, 0.5000002 ],
			"min": [ -0.5, -1, -0.5000001 ],
			"type": "VEC3"
		},
		{
			"bufferView": 2,
			"byteOffset": 2784,
			"componentType": 5126,
			"count": 88,
			"max": [ 1, 1, 1 ],
			"min": [ -1, -1, -1 ],
			"type": "VEC3"
		},
		{
			"bufferView": 1,
			"byteOffset": 1152,
			"componentType": 5126,
			"count": 88,
			"max": [ 0.9997491, 0.9994308 ],
			"min": [ 0.0006936856, 0.0004537381 ],
			"type": "VEC2"
		},
		{
			"bufferView": 1,
			"byteOffset": 1856,
			"componentType": 5126,
			"count": 88,
			"max": [ 0.9971684, 0.9978806 ],
			"min": [ 0.004360619, 0.002600181 ],
			"type": "VEC2"
		},
		{
			"bufferView": 3,
			"byteOffset": 1152,
			"componentType": 5126,
			"count": 88,
			"max": [ 1, 0, 1, 1 ],
			"min": [ -1, 0, -1, 1 ],
			"type": "VEC4"
		},
		{
			"bufferView": 0,
			"byteOffset": 216,
			"componentType": 5123,
			"count": 240,
			"max": [ 87 ],
			"min": [ 0 ],
			"type": "SCALAR"
		}
	],
	"buffers": [
		{
			"byteLength": 9656,
			"uri": "DHlogo.bin"
		}
	],
	"bufferViews": [
		{
			"buffer": 0,
			"byteLength": 696,
			"target": 34963,
			"byteOffset": 8960
		},
		{
			"buffer": 0,
			"byteLength": 2560,
			"target": 34962,
			"byteStride": 8,
			"byteOffset": 0
		},
		{
			"buffer": 0,
			"byteLength": 3840,
			"target": 34962,
			"byteStride": 12,
			"byteOffset": 2560
		},
		{
			"buffer": 0,
			"byteLength": 2560,
			"target": 34962,
			"byteStride": 16,
			"byteOffset": 6400
		}
	],
	"images": [
		{
			"uri": "Assets/DH/DHlogo.jpg"
		}
	],
	"materials": [
		{
			"pbrMetallicRoughness": {
				"baseColorTexture" : {
					"index" : 0,
					"texCoord" : 0
				},
				"baseColorFactor": [1, 1, 1, 1],
				"metallicFactor": 0,
				"roughnessFactor": 0.5
			},
			"emissiveFactor": [0, 0, 0],
			"doubleSided": false,
			"name": "DHlogo"
		},
		{
			"pbrMetallicRoughness": {
				"baseColorFactor": [1, 1, 1, 1],
				"metallicFactor": 0,
				"roughnessFactor": 0.5
			},
			"emissiveFactor": [0, 0, 0],
			"doubleSided": false,
			"name": "Default-Material"
		},
		{
			"pbrMetallicRoughness": {
				"baseColorFactor": [0.4431373, 0.4431373, 0.4431373, 1],
				"metallicFactor": 0,
				"roughnessFactor": 1
			},
			"emissiveFactor": [0, 0, 0],
			"doubleSided": false,
			"name": "08 - Default"
		}
	],
	"meshes": [
		{
			"name": "mesh_Cube_672Cube (1)",
			"primitives": [
				{
					"attributes": {
						"POSITION": 0,
						"NORMAL": 1,
						"TEXCOORD_0": 2,
						"TEXCOORD_1": 3,
						"TANGENT": 4
					},
					"indices": 5,
					"material": 0,
					"mode": 4
				}
			]
		},
		{
			"name": "mesh_Cube_672collider",
			"primitives": [
				{
					"attributes": {
						"POSITION": 6,
						"NORMAL": 7,
						"TEXCOORD_0": 8,
						"TEXCOORD_1": 9,
						"TANGENT": 10
					},
					"indices": 11,
					"material": 1,
					"mode": 4
				}
			]
		},
		{
			"name": "mesh_Cube_672Cube",
			"primitives": [
				{
					"attributes": {
						"POSITION": 12,
						"NORMAL": 13,
						"TEXCOORD_0": 14,
						"TEXCOORD_1": 15,
						"TANGENT": 16
					},
					"indices": 17,
					"material": 0,
					"mode": 4
				}
			]
		},
		{
			"name": "mesh_Cylinder_674trigger (1)",
			"primitives": [
				{
					"attributes": {
						"POSITION": 18,
						"NORMAL": 19,
						"TEXCOORD_0": 20,
						"TEXCOORD_1": 21,
						"TANGENT": 22
					},
					"indices": 23,
					"material": 2,
					"mode": 4
				}
			]
		}
	],
	"nodes": [
		{
			"name": "UnityGlTF_root",
			"children": [
				2
			]
		},
		{
			"name": "node_Cube (1)_25026",
			"mesh": 0,
			"translation": [ 0, 0, 0.0014],
			"scale": [ 1, 0.40022, 0.0032264],
			"rotation": [0, 1, 0, 0]
		},
		{
			"name": "node_DHlogo_29254",
			"children": [
				4,
				1,
				5,
				3
			],
			"matrix": [1, 0, 0, 0, 0, 1, 0, 0, 0, 0, 1, 0, 0, 0, 0, 1]
		},
		{
			"name": "node_collider_25758",
			"mesh": 1,
			"scale": [ 0.001, 0.001, 0.001]
		},
		{
			"name": "node_Cube_28274",
			"mesh": 2,
			"translation": [ 0, 0, -0.00339],
			"scale": [ 1, 0.40022, 0.0032264]
		},
		{
			"name": "node_trigger (1)_-7984",
			"mesh": 3,
			"translation": [ 0, -0.418, 0],
			"scale": [ 8, 0.2, 8]
		}
	],
	"samplers": [
		{
			"magFilter": 9729,
			"minFilter": 9985,
			"wrapS": 10497,
			"wrapT": 10497
		}
	],
	"scenes": [
		{
			"name":"defaultScene",
			"nodes": [
				0
			]
		}
	],
	"scene": 0,
	"textures": [
		{
			"sampler": 0,
			"source": 0
		}
	]
}