{
	"asset": {
		"generator": "Unity 2018.4.2f1",
		"extras": {
			"exporterVersion" : "2.2.1"
		},
		"version": "2.0"
	},
	"accessors": [
		{
			"bufferView": 2,
			"byteOffset": 0,
			"componentType": 5126,
			"count": 1118,
			"max": [ 0.01937067, 0.00537417, 0.0005097591 ],
			"min": [ -0.01929507, -0.005374175, -0.0008003356 ],
			"type": "VEC3"
		},
		{
			"bufferView": 2,
			"byteOffset": 13416,
			"componentType": 5126,
			"count": 1118,
			"max": [ 0.9999715, 0.9999554, 0.999992 ],
			"min": [ -0.9999717, -0.9999555, -0.9999777 ],
			"type": "VEC3"
		},
		{
			"bufferView": 1,
			"byteOffset": 0,
			"componentType": 5126,
			"count": 1118,
			"max": [ 0.6732106, 0.118667 ],
			"min": [ 0.6312007, 0.07656634 ],
			"type": "VEC2"
		},
		{
			"bufferView": 3,
			"byteOffset": 0,
			"componentType": 5126,
			"count": 1118,
			"max": [ 0.9999849, 0.9999799, 0.9999954, 1 ],
			"min": [ -0.9999956, -0.2317749, -0.9999982, 1 ],
			"type": "VEC4"
		},
		{
			"bufferView": 0,
			"byteOffset": 0,
			"componentType": 5123,
			"count": 1974,
			"max": [ 1117 ],
			"min": [ 0 ],
			"type": "SCALAR"
		},
		{
			"bufferView": 2,
			"byteOffset": 26832,
			"componentType": 5126,
			"count": 24,
			"max": [ 0.5, 0.5, 0.5 ],
			"min": [ -0.5, -0.5, -0.5 ],
			"type": "VEC3"
		},
		{
			"bufferView": 2,
			"byteOffset": 27120,
			"componentType": 5126,
			"count": 24,
			"max": [ 1, 1, 1 ],
			"min": [ -1, -1, -1 ],
			"type": "VEC3"
		},
		{
			"bufferView": 1,
			"byteOffset": 8944,
			"componentType": 5126,
			"count": 24,
			"max": [ 1, 1 ],
			"min": [ 0, 0 ],
			"type": "VEC2"
		},
		{
			"bufferView": 1,
			"byteOffset": 9136,
			"componentType": 5126,
			"count": 24,
			"max": [ 0.9966581, 0.6528358 ],
			"min": [ 0.004055766, 0.004055766 ],
			"type": "VEC2"
		},
		{
			"bufferView": 3,
			"byteOffset": 17888,
			"componentType": 5126,
			"count": 24,
			"max": [ 0, 0, 1, 1 ],
			"min": [ -1, 0, -1, 1 ],
			"type": "VEC4"
		},
		{
			"bufferView": 0,
			"byteOffset": 3948,
			"componentType": 5123,
			"count": 36,
			"max": [ 23 ],
			"min": [ 0 ],
			"type": "SCALAR"
		}
	],
	"buffers": [
		{
			"byteLength": 59028,
			"uri": "fence002.bin"
		}
	],
	"bufferViews": [
		{
			"buffer": 0,
			"byteLength": 4020,
			"target": 34963,
			"byteOffset": 55008
		},
		{
			"buffer": 0,
			"byteLength": 9328,
			"target": 34962,
			"byteStride": 8,
			"byteOffset": 0
		},
		{
			"buffer": 0,
			"byteLength": 27408,
			"target": 34962,
			"byteStride": 12,
			"byteOffset": 9328
		},
		{
			"buffer": 0,
			"byteLength": 18272,
			"target": 34962,
			"byteStride": 16,
			"byteOffset": 36736
		}
	],
	"materials": [
		{
			"pbrMetallicRoughness": {
				"baseColorFactor": [1, 0.69, 0.34, 1],
				"metallicFactor": 0,
				"roughnessFactor": 1
			},
			"emissiveFactor": [0, 0, 0],
			"doubleSided": false,
			"name": "_PickupSG4.1"
		},
		{
			"pbrMetallicRoughness": {
				"baseColorFactor": [1, 1, 1, 1],
				"metallicFactor": 0,
				"roughnessFactor": 0.5
			},
			"emissiveFactor": [0, 0, 0],
			"doubleSided": false,
			"name": "Default-Material"
		}
	],
	"meshes": [
		{
			"name": "mesh_M_fance_17_18654M_fance_17",
			"primitives": [
				{
					"attributes": {
						"POSITION": 0,
						"NORMAL": 1,
						"TEXCOORD_0": 2,
						"TANGENT": 3
					},
					"indices": 4,
					"material": 0,
					"mode": 4
				}
			]
		},
		{
			"name": "mesh_Cube_680collider (8)",
			"primitives": [
				{
					"attributes": {
						"POSITION": 5,
						"NORMAL": 6,
						"TEXCOORD_0": 7,
						"TEXCOORD_1": 8,
						"TANGENT": 9
					},
					"indices": 10,
					"material": 1,
					"mode": 4
				}
			]
		}
	],
	"nodes": [
		{
			"name": "UnityGlTF_root",
			"children": [
				3
			]
		},
		{
			"name": "node_M_fance_17_-32326",
			"mesh": 0,
			"translation": [ 0, 0.49, 0],
			"scale": [ 100, 100, 100]
		},
		{
			"name": "node_collider (8)_-17180",
			"mesh": 1,
			"scale": [ 0.01, 0.01, 0.01]
		},
		{
			"name": "node_fence002_-17182",
			"children": [
				2,
				1
			],
			"matrix": [1, 0, 0, 0, 0, 1, 0, 0, 0, 0, 1, 0, 0, 0, 0, 1]
		}
	],
	"scenes": [
		{
			"name":"defaultScene",
			"nodes": [
				0
			]
		}
	],
	"scene": 0
}