{
	"asset": {
		"generator": "Unity 2018.4.2f1",
		"extras": {
			"exporterVersion" : "2.2.1"
		},
		"version": "2.0"
	},
	"accessors": [
		{
			"bufferView": 2,
			"byteOffset": 0,
			"componentType": 5126,
			"count": 24,
			"max": [ 0.5, 0.5, 0.5 ],
			"min": [ -0.5, -0.5, -0.5 ],
			"type": "VEC3"
		},
		{
			"bufferView": 2,
			"byteOffset": 288,
			"componentType": 5126,
			"count": 24,
			"max": [ 1, 1, 1 ],
			"min": [ -1, -1, -1 ],
			"type": "VEC3"
		},
		{
			"bufferView": 1,
			"byteOffset": 0,
			"componentType": 5126,
			"count": 24,
			"max": [ 1, 1 ],
			"min": [ 0, 0 ],
			"type": "VEC2"
		},
		{
			"bufferView": 1,
			"byteOffset": 192,
			"componentType": 5126,
			"count": 24,
			"max": [ 0.9966581, 0.6528358 ],
			"min": [ 0.004055766, 0.004055766 ],
			"type": "VEC2"
		},
		{
			"bufferView": 3,
			"byteOffset": 0,
			"componentType": 5126,
			"count": 24,
			"max": [ 0, 0, 1, 1 ],
			"min": [ -1, 0, -1, 1 ],
			"type": "VEC4"
		},
		{
			"bufferView": 0,
			"byteOffset": 0,
			"componentType": 5123,
			"count": 36,
			"max": [ 23 ],
			"min": [ 0 ],
			"type": "SCALAR"
		},
		{
			"bufferView": 2,
			"byteOffset": 576,
			"componentType": 5126,
			"count": 885,
			"max": [ 0.756502, -0.4507824, 2.573333 ],
			"min": [ 0.3087848, -0.8319951, 2.487234 ],
			"type": "VEC3"
		},
		{
			"bufferView": 2,
			"byteOffset": 11196,
			"componentType": 5126,
			"count": 885,
			"max": [ 1, 1, 1 ],
			"min": [ -1, -1, -1 ],
			"type": "VEC3"
		},
		{
			"bufferView": 1,
			"byteOffset": 384,
			"componentType": 5126,
			"count": 885,
			"max": [ 0.980713, 0.992276 ],
			"min": [ 0.028667, 0.009395003 ],
			"type": "VEC2"
		},
		{
			"bufferView": 3,
			"byteOffset": 384,
			"componentType": 5126,
			"count": 885,
			"max": [ 1, 1, 1, 1 ],
			"min": [ -0.9950358, -0.7069705, -1, -1 ],
			"type": "VEC4"
		},
		{
			"bufferView": 0,
			"byteOffset": 72,
			"componentType": 5123,
			"count": 864,
			"max": [ 684 ],
			"min": [ 0 ],
			"type": "SCALAR"
		},
		{
			"bufferView": 0,
			"byteOffset": 1800,
			"componentType": 5123,
			"count": 288,
			"max": [ 884 ],
			"min": [ 685 ],
			"type": "SCALAR"
		}
	],
	"buffers": [
		{
			"byteLength": 46200,
			"uri": "fence004.bin"
		}
	],
	"bufferViews": [
		{
			"buffer": 0,
			"byteLength": 2376,
			"target": 34963,
			"byteOffset": 43824
		},
		{
			"buffer": 0,
			"byteLength": 7464,
			"target": 34962,
			"byteStride": 8,
			"byteOffset": 0
		},
		{
			"buffer": 0,
			"byteLength": 21816,
			"target": 34962,
			"byteStride": 12,
			"byteOffset": 7464
		},
		{
			"buffer": 0,
			"byteLength": 14544,
			"target": 34962,
			"byteStride": 16,
			"byteOffset": 29280
		}
	],
	"materials": [
		{
			"pbrMetallicRoughness": {
				"baseColorFactor": [1, 1, 1, 1],
				"metallicFactor": 0,
				"roughnessFactor": 0.5
			},
			"emissiveFactor": [0, 0, 0],
			"doubleSided": false,
			"name": "Default-Material"
		},
		{
			"pbrMetallicRoughness": {
				"baseColorFactor": [0.72, 0.4893372, 0.3096, 1],
				"metallicFactor": 0,
				"roughnessFactor": 1
			},
			"emissiveFactor": [0, 0, 0],
			"doubleSided": false,
			"name": "_HorseSG3"
		},
		{
			"pbrMetallicRoughness": {
				"baseColorFactor": [0.308, 0.308, 0.33, 1],
				"metallicFactor": 0,
				"roughnessFactor": 1
			},
			"emissiveFactor": [0, 0, 0],
			"doubleSided": false,
			"name": "_Horse_2SG1"
		}
	],
	"meshes": [
		{
			"name": "mesh_Cube_680collider (8)",
			"primitives": [
				{
					"attributes": {
						"POSITION": 0,
						"NORMAL": 1,
						"TEXCOORD_0": 2,
						"TEXCOORD_1": 3,
						"TANGENT": 4
					},
					"indices": 5,
					"material": 0,
					"mode": 4
				}
			]
		},
		{
			"name": "mesh_Object001_37062Object001",
			"primitives": [
				{
					"attributes": {
						"POSITION": 6,
						"NORMAL": 7,
						"TEXCOORD_0": 8,
						"TANGENT": 9
					},
					"indices": 10,
					"material": 1,
					"mode": 4
				},
				{
					"attributes": {
						"POSITION": 6,
						"NORMAL": 7,
						"TEXCOORD_0": 8,
						"TANGENT": 9
					},
					"indices": 11,
					"material": 2,
					"mode": 4
				}
			]
		}
	],
	"nodes": [
		{
			"name": "UnityGlTF_root",
			"children": [
				1
			]
		},
		{
			"name": "node_fence004_-25562",
			"children": [
				2,
				3
			],
			"matrix": [1, 0, 0, 0, 0, 1, 0, 0, 0, 0, 1, 0, 0, 0, 0, 1]
		},
		{
			"name": "node_collider (8)_-25554",
			"mesh": 0,
			"scale": [ 0.01, 0.01, 0.01]
		},
		{
			"name": "node_Object001_-26020",
			"mesh": 1,
			"translation": [ -1.035, 1.613, -4.902],
			"scale": [ 1.94493, 1.94493, 1.94493]
		}
	],
	"scenes": [
		{
			"name":"defaultScene",
			"nodes": [
				0
			]
		}
	],
	"scene": 0
}