{
	"asset": {
		"generator": "Unity 2018.4.2f1",
		"extras": {
			"exporterVersion" : "2.2.1"
		},
		"version": "2.0"
	},
	"accessors": [
		{
			"bufferView": 2,
			"byteOffset": 0,
			"componentType": 5126,
			"count": 1010,
			"max": [ 2.972557, 5.221031, 1.927421 ],
			"min": [ -5.46426, -3.573126, -3.610696 ],
			"type": "VEC3"
		},
		{
			"bufferView": 2,
			"byteOffset": 12120,
			"componentType": 5126,
			"count": 1010,
			"max": [ 0.996229, 0.909856, 0.9982797 ],
			"min": [ -0.9218237, -0.9431685, -1 ],
			"type": "VEC3"
		},
		{
			"bufferView": 1,
			"byteOffset": 0,
			"componentType": 5126,
			"count": 1010,
			"max": [ 1, 1 ],
			"min": [ 0, 0 ],
			"type": "VEC2"
		},
		{
			"bufferView": 3,
			"byteOffset": 0,
			"componentType": 5126,
			"count": 1010,
			"max": [ 0.9741863, 0.9946454, 1, 1 ],
			"min": [ -0.9932014, -0.9990821, -0.9985272, -1 ],
			"type": "VEC4"
		},
		{
			"bufferView": 0,
			"byteOffset": 0,
			"componentType": 5123,
			"count": 1341,
			"max": [ 1009 ],
			"min": [ 0 ],
			"type": "SCALAR"
		}
	],
	"buffers": [
		{
			"byteLength": 51162,
			"uri": "house001.bin"
		}
	],
	"bufferViews": [
		{
			"buffer": 0,
			"byteLength": 2682,
			"target": 34963,
			"byteOffset": 48480
		},
		{
			"buffer": 0,
			"byteLength": 8080,
			"target": 34962,
			"byteStride": 8,
			"byteOffset": 0
		},
		{
			"buffer": 0,
			"byteLength": 24240,
			"target": 34962,
			"byteStride": 12,
			"byteOffset": 8080
		},
		{
			"buffer": 0,
			"byteLength": 16160,
			"target": 34962,
			"byteStride": 16,
			"byteOffset": 32320
		}
	],
	"images": [
		{
			"uri": "house.jpg"
		}
	],
	"materials": [
		{
			"pbrMetallicRoughness": {
				"baseColorTexture" : {
					"index" : 0,
					"texCoord" : 0
				},
				"baseColorFactor": [1, 1, 1, 1],
				"metallicFactor": 0,
				"roughnessFactor": 1
			},
			"emissiveFactor": [0, 0, 0],
			"doubleSided": false,
			"name": "_Material__163"
		}
	],
	"meshes": [
		{
			"name": "mesh__building28_65508house001",
			"primitives": [
				{
					"attributes": {
						"POSITION": 0,
						"NORMAL": 1,
						"TEXCOORD_0": 2,
						"TANGENT": 3
					},
					"indices": 4,
					"material": 0,
					"mode": 4
				}
			]
		}
	],
	"nodes": [
		{
			"name": "UnityGlTF_root",
			"children": [
				2
			]
		},
		{
			"name": "node_house001_-19486",
			"mesh": 0,
			"translation": [ -45.64, 2.357345, -4.37],
			"rotation": [-0.7071068, 0, 0, -0.7071068]
		},
		{
			"name": "node_house001_27960",
			"children": [
				1
			],
			"matrix": [1, 0, 0, 0, 0, 1, 0, 0, 0, 0, 1, 0, 0, 0, 0, 1]
		}
	],
	"samplers": [
		{
			"magFilter": 9729,
			"minFilter": 9985,
			"wrapS": 10497,
			"wrapT": 10497
		}
	],
	"scenes": [
		{
			"name":"defaultScene",
			"nodes": [
				0
			]
		}
	],
	"scene": 0,
	"textures": [
		{
			"sampler": 0,
			"source": 0
		}
	]
}