{
	"asset": {
		"generator": "Unity 2018.4.2f1",
		"extras": {
			"exporterVersion" : "2.2.1"
		},
		"version": "2.0"
	},
	"accessors": [
		{
			"bufferView": 2,
			"byteOffset": 0,
			"componentType": 5126,
			"count": 4582,
			"max": [ 0.1841643, 0.1253493, 0.1837031 ],
			"min": [ -0.1795678, -0.06627793, -0.1792791 ],
			"type": "VEC3"
		},
		{
			"bufferView": 2,
			"byteOffset": 54984,
			"componentType": 5126,
			"count": 4582,
			"max": [ 0.9980667, 1, 0.998965 ],
			"min": [ -0.9999596, -0.999954, -0.9998305 ],
			"type": "VEC3"
		},
		{
			"bufferView": 1,
			"byteOffset": 0,
			"componentType": 5126,
			"count": 4582,
			"max": [ 0.735868, 0.9861429 ],
			"min": [ 0.1437522, 0.2041866 ],
			"type": "VEC2"
		},
		{
			"bufferView": 3,
			"byteOffset": 0,
			"componentType": 5126,
			"count": 4582,
			"max": [ 0.9989649, 1, 0.9983549, 1 ],
			"min": [ -0.9990201, -0.9988985, -0.9992257, -1 ],
			"type": "VEC4"
		},
		{
			"bufferView": 0,
			"byteOffset": 0,
			"componentType": 5123,
			"count": 5754,
			"max": [ 4581 ],
			"min": [ 0 ],
			"type": "SCALAR"
		}
	],
	"buffers": [
		{
			"byteLength": 231444,
			"uri": "land005.bin"
		}
	],
	"bufferViews": [
		{
			"buffer": 0,
			"byteLength": 11508,
			"target": 34963,
			"byteOffset": 219936
		},
		{
			"buffer": 0,
			"byteLength": 36656,
			"target": 34962,
			"byteStride": 8,
			"byteOffset": 0
		},
		{
			"buffer": 0,
			"byteLength": 109968,
			"target": 34962,
			"byteStride": 12,
			"byteOffset": 36656
		},
		{
			"buffer": 0,
			"byteLength": 73312,
			"target": 34962,
			"byteStride": 16,
			"byteOffset": 146624
		}
	],
	"images": [
		{
			"uri": "Main Base.jpg"
		}
	],
	"materials": [
		{
			"pbrMetallicRoughness": {
				"baseColorTexture" : {
					"index" : 0,
					"texCoord" : 0
				},
				"baseColorFactor": [0.8, 0.8, 0.8, 1],
				"metallicFactor": 0,
				"roughnessFactor": 1
			},
			"emissiveFactor": [0, 0, 0],
			"doubleSided": false,
			"name": "Low Poly River Environment Material"
		}
	],
	"meshes": [
		{
			"name": "mesh_M_Pond_Base_27648land005",
			"primitives": [
				{
					"attributes": {
						"POSITION": 0,
						"NORMAL": 1,
						"TEXCOORD_0": 2,
						"TANGENT": 3
					},
					"indices": 4,
					"material": 0,
					"mode": 4
				}
			]
		}
	],
	"nodes": [
		{
			"name": "UnityGlTF_root",
			"children": [
				1
			]
		},
		{
			"name": "node_land005_-79126",
			"mesh": 0,
			"matrix": [1, 0, 0, 0, 0, 1, 0, 0, 0, 0, 1, 0, 0, 0, 0, 1]
		}
	],
	"samplers": [
		{
			"magFilter": 9729,
			"minFilter": 9985,
			"wrapS": 10497,
			"wrapT": 10497
		}
	],
	"scenes": [
		{
			"name":"defaultScene",
			"nodes": [
				0
			]
		}
	],
	"scene": 0,
	"textures": [
		{
			"sampler": 0,
			"source": 0
		}
	]
}