{
	"asset": {
		"generator": "Unity 2018.4.2f1",
		"extras": {
			"exporterVersion" : "2.2.1"
		},
		"version": "2.0"
	},
	"accessors": [
		{
			"bufferView": 2,
			"byteOffset": 0,
			"componentType": 5126,
			"count": 2190,
			"max": [ 11.38969, 0.9850913, 12.0967 ],
			"min": [ -12.6435, -10.63199, -12.40663 ],
			"type": "VEC3"
		},
		{
			"bufferView": 2,
			"byteOffset": 26280,
			"componentType": 5126,
			"count": 2190,
			"max": [ 0.9998683, 0.9999834, 0.9997517 ],
			"min": [ -0.9996893, -0.9999144, -0.9998629 ],
			"type": "VEC3"
		},
		{
			"bufferView": 1,
			"byteOffset": 0,
			"componentType": 5126,
			"count": 2190,
			"max": [ 0.9707012, 0.9258955 ],
			"min": [ 0.137977, 0.2071168 ],
			"type": "VEC2"
		},
		{
			"bufferView": 3,
			"byteOffset": 0,
			"componentType": 5126,
			"count": 2190,
			"max": [ 1, 0.9999932, 0.9978459, 1 ],
			"min": [ -0.9929082, -1, -0.9980237, -1 ],
			"type": "VEC4"
		},
		{
			"bufferView": 0,
			"byteOffset": 0,
			"componentType": 5123,
			"count": 3468,
			"max": [ 2189 ],
			"min": [ 0 ],
			"type": "SCALAR"
		}
	],
	"buffers": [
		{
			"byteLength": 112056,
			"uri": "land003.bin"
		}
	],
	"bufferViews": [
		{
			"buffer": 0,
			"byteLength": 6936,
			"target": 34963,
			"byteOffset": 105120
		},
		{
			"buffer": 0,
			"byteLength": 17520,
			"target": 34962,
			"byteStride": 8,
			"byteOffset": 0
		},
		{
			"buffer": 0,
			"byteLength": 52560,
			"target": 34962,
			"byteStride": 12,
			"byteOffset": 17520
		},
		{
			"buffer": 0,
			"byteLength": 35040,
			"target": 34962,
			"byteStride": 16,
			"byteOffset": 70080
		}
	],
	"images": [
		{
			"uri": "Main Base.jpg"
		}
	],
	"materials": [
		{
			"pbrMetallicRoughness": {
				"baseColorTexture" : {
					"index" : 0,
					"texCoord" : 0
				},
				"baseColorFactor": [0.8, 0.8, 0.8, 1],
				"metallicFactor": 0,
				"roughnessFactor": 1
			},
			"emissiveFactor": [0, 0, 0],
			"doubleSided": false,
			"name": "Low Poly River Environment Material"
		}
	],
	"meshes": [
		{
			"name": "mesh__M_Floting_Base_1_27568land003",
			"primitives": [
				{
					"attributes": {
						"POSITION": 0,
						"NORMAL": 1,
						"TEXCOORD_0": 2,
						"TANGENT": 3
					},
					"indices": 4,
					"material": 0,
					"mode": 4
				}
			]
		}
	],
	"nodes": [
		{
			"name": "UnityGlTF_root",
			"children": [
				1
			]
		},
		{
			"name": "node_land003_-79134",
			"mesh": 0,
			"matrix": [1, 0, 0, 0, 0, 1, 0, 0, 0, 0, 1, 0, 0, 0, 0, 1]
		}
	],
	"samplers": [
		{
			"magFilter": 9729,
			"minFilter": 9985,
			"wrapS": 10497,
			"wrapT": 10497
		}
	],
	"scenes": [
		{
			"name":"defaultScene",
			"nodes": [
				0
			]
		}
	],
	"scene": 0,
	"textures": [
		{
			"sampler": 0,
			"source": 0
		}
	]
}