{
	"asset": {
		"generator": "Unity 2018.4.2f1",
		"extras": {
			"exporterVersion" : "2.2.1"
		},
		"version": "2.0"
	},
	"accessors": [
		{
			"bufferView": 2,
			"byteOffset": 0,
			"componentType": 5126,
			"count": 193,
			"max": [ 0.02485866, 0.06099836, 0.03747176 ],
			"min": [ -0.02485866, -0.000357741, -0.03747175 ],
			"type": "VEC3"
		},
		{
			"bufferView": 2,
			"byteOffset": 2316,
			"componentType": 5126,
			"count": 193,
			"max": [ 0.9999226, 0.8079006, 0.9842888 ],
			"min": [ -0.9868085, 0.01137411, -0.9992023 ],
			"type": "VEC3"
		},
		{
			"bufferView": 1,
			"byteOffset": 0,
			"componentType": 5126,
			"count": 193,
			"max": [ 0.56049, 0.317626 ],
			"min": [ 0.4937006, 0.178679 ],
			"type": "VEC2"
		},
		{
			"bufferView": 3,
			"byteOffset": 0,
			"componentType": 5126,
			"count": 193,
			"max": [ 0.03326169, 0.9973665, 0.3469176, 1 ],
			"min": [ -0.9973334, -0.9970174, -0.4196841, -1 ],
			"type": "VEC4"
		},
		{
			"bufferView": 0,
			"byteOffset": 0,
			"componentType": 5123,
			"count": 201,
			"max": [ 192 ],
			"min": [ 0 ],
			"type": "SCALAR"
		}
	],
	"buffers": [
		{
			"byteLength": 9666,
			"uri": "mountain002.bin"
		}
	],
	"bufferViews": [
		{
			"buffer": 0,
			"byteLength": 402,
			"target": 34963,
			"byteOffset": 9264
		},
		{
			"buffer": 0,
			"byteLength": 1544,
			"target": 34962,
			"byteStride": 8,
			"byteOffset": 0
		},
		{
			"buffer": 0,
			"byteLength": 4632,
			"target": 34962,
			"byteStride": 12,
			"byteOffset": 1544
		},
		{
			"buffer": 0,
			"byteLength": 3088,
			"target": 34962,
			"byteStride": 16,
			"byteOffset": 6176
		}
	],
	"images": [
		{
			"uri": "cartoon_outdoor01.jpg"
		}
	],
	"materials": [
		{
			"pbrMetallicRoughness": {
				"baseColorTexture" : {
					"index" : 0,
					"texCoord" : 0
				},
				"baseColorFactor": [1, 1, 1, 1],
				"metallicFactor": 0,
				"roughnessFactor": 1
			},
			"emissiveFactor": [0, 0, 0],
			"doubleSided": false,
			"name": ""
		}
	],
	"meshes": [
		{
			"name": "mesh_Mountain03_1_27716mountain002",
			"primitives": [
				{
					"attributes": {
						"POSITION": 0,
						"NORMAL": 1,
						"TEXCOORD_0": 2,
						"TANGENT": 3
					},
					"indices": 4,
					"material": 0,
					"mode": 4
				}
			]
		}
	],
	"nodes": [
		{
			"name": "UnityGlTF_root",
			"children": [
				2
			]
		},
		{
			"name": "node_mountain002_-158530",
			"mesh": 0,
			"scale": [ 100, 100, 100]
		},
		{
			"name": "node_mountain002_-161846",
			"children": [
				1
			],
			"matrix": [1, 0, 0, 0, 0, 1, 0, 0, 0, 0, 1, 0, 0, 0, 0, 1]
		}
	],
	"samplers": [
		{
			"magFilter": 9729,
			"minFilter": 9985,
			"wrapS": 10497,
			"wrapT": 10497
		}
	],
	"scenes": [
		{
			"name":"defaultScene",
			"nodes": [
				0
			]
		}
	],
	"scene": 0,
	"textures": [
		{
			"sampler": 0,
			"source": 0
		}
	]
}