{
	"asset": {
		"generator": "Unity 2018.4.2f1",
		"extras": {
			"exporterVersion" : "2.2.1"
		},
		"version": "2.0"
	},
	"accessors": [
		{
			"bufferView": 2,
			"byteOffset": 0,
			"componentType": 5126,
			"count": 250,
			"max": [ 0.04631874, 0.05684431, 0.08855829 ],
			"min": [ -0.04631874, -3.904094E-09, -0.08855829 ],
			"type": "VEC3"
		},
		{
			"bufferView": 2,
			"byteOffset": 3000,
			"componentType": 5126,
			"count": 250,
			"max": [ 0.9963877, 0.9425938, 0.9552634 ],
			"min": [ -0.9668052, -0.3359209, -0.9977348 ],
			"type": "VEC3"
		},
		{
			"bufferView": 1,
			"byteOffset": 0,
			"componentType": 5126,
			"count": 250,
			"max": [ 0.56049, 0.317626 ],
			"min": [ 0.4937006, 0.1793188 ],
			"type": "VEC2"
		},
		{
			"bufferView": 3,
			"byteOffset": 0,
			"componentType": 5126,
			"count": 250,
			"max": [ 1, 0.9769987, 0.9098279, 1 ],
			"min": [ -0.9975169, -0.9802443, -0.9615494, -1 ],
			"type": "VEC4"
		},
		{
			"bufferView": 0,
			"byteOffset": 0,
			"componentType": 5123,
			"count": 252,
			"max": [ 249 ],
			"min": [ 0 ],
			"type": "SCALAR"
		}
	],
	"buffers": [
		{
			"byteLength": 12504,
			"uri": "mountain001.bin"
		}
	],
	"bufferViews": [
		{
			"buffer": 0,
			"byteLength": 504,
			"target": 34963,
			"byteOffset": 12000
		},
		{
			"buffer": 0,
			"byteLength": 2000,
			"target": 34962,
			"byteStride": 8,
			"byteOffset": 0
		},
		{
			"buffer": 0,
			"byteLength": 6000,
			"target": 34962,
			"byteStride": 12,
			"byteOffset": 2000
		},
		{
			"buffer": 0,
			"byteLength": 4000,
			"target": 34962,
			"byteStride": 16,
			"byteOffset": 8000
		}
	],
	"images": [
		{
			"uri": "cartoon_outdoor01.jpg"
		}
	],
	"materials": [
		{
			"pbrMetallicRoughness": {
				"baseColorTexture" : {
					"index" : 0,
					"texCoord" : 0
				},
				"baseColorFactor": [1, 1, 1, 1],
				"metallicFactor": 0,
				"roughnessFactor": 1
			},
			"emissiveFactor": [0, 0, 0],
			"doubleSided": false,
			"name": ""
		}
	],
	"meshes": [
		{
			"name": "mesh_Mountain02_27712mountain001",
			"primitives": [
				{
					"attributes": {
						"POSITION": 0,
						"NORMAL": 1,
						"TEXCOORD_0": 2,
						"TANGENT": 3
					},
					"indices": 4,
					"material": 0,
					"mode": 4
				}
			]
		}
	],
	"nodes": [
		{
			"name": "UnityGlTF_root",
			"children": [
				2
			]
		},
		{
			"name": "node_mountain001_-158534",
			"mesh": 0,
			"scale": [ 118.8586, 118.8585, 118.8586]
		},
		{
			"name": "node_mountain001_-161774",
			"children": [
				1
			],
			"matrix": [1, 0, 0, 0, 0, 1, 0, 0, 0, 0, 1, 0, 0, 0, 0, 1]
		}
	],
	"samplers": [
		{
			"magFilter": 9729,
			"minFilter": 9985,
			"wrapS": 10497,
			"wrapT": 10497
		}
	],
	"scenes": [
		{
			"name":"defaultScene",
			"nodes": [
				0
			]
		}
	],
	"scene": 0,
	"textures": [
		{
			"sampler": 0,
			"source": 0
		}
	]
}