{
	"asset": {
		"generator": "Unity 2018.4.2f1",
		"extras": {
			"exporterVersion" : "2.2.1"
		},
		"version": "2.0"
	},
	"accessors": [
		{
			"bufferView": 2,
			"byteOffset": 0,
			"componentType": 5126,
			"count": 708,
			"max": [ 0.00930158, 0.03624172, 0.01287474 ],
			"min": [ -0.009958239, -0.0007392852, -0.009271494 ],
			"type": "VEC3"
		},
		{
			"bufferView": 2,
			"byteOffset": 8496,
			"componentType": 5126,
			"count": 708,
			"max": [ 0.9986388, 0.9758608, 0.9938779 ],
			"min": [ -0.9963962, -0.9993597, -0.9995288 ],
			"type": "VEC3"
		},
		{
			"bufferView": 1,
			"byteOffset": 0,
			"componentType": 5126,
			"count": 708,
			"max": [ 0.7859262, 0.8495058 ],
			"min": [ 0.5135861, 0.6329226 ],
			"type": "VEC2"
		},
		{
			"bufferView": 3,
			"byteOffset": 0,
			"componentType": 5126,
			"count": 708,
			"max": [ 1, 0.9242579, 0.9937179, 1 ],
			"min": [ -0.9199921, -0.9265714, -0.9906743, -1 ],
			"type": "VEC4"
		},
		{
			"bufferView": 0,
			"byteOffset": 0,
			"componentType": 5123,
			"count": 852,
			"max": [ 707 ],
			"min": [ 0 ],
			"type": "SCALAR"
		}
	],
	"buffers": [
		{
			"byteLength": 35688,
			"uri": "tree010.bin"
		}
	],
	"bufferViews": [
		{
			"buffer": 0,
			"byteLength": 1704,
			"target": 34963,
			"byteOffset": 33984
		},
		{
			"buffer": 0,
			"byteLength": 5664,
			"target": 34962,
			"byteStride": 8,
			"byteOffset": 0
		},
		{
			"buffer": 0,
			"byteLength": 16992,
			"target": 34962,
			"byteStride": 12,
			"byteOffset": 5664
		},
		{
			"buffer": 0,
			"byteLength": 11328,
			"target": 34962,
			"byteStride": 16,
			"byteOffset": 22656
		}
	],
	"images": [
		{
			"uri": "Main Base.jpg"
		}
	],
	"materials": [
		{
			"pbrMetallicRoughness": {
				"baseColorTexture" : {
					"index" : 0,
					"texCoord" : 0
				},
				"baseColorFactor": [0.8, 0.8, 0.8, 1],
				"metallicFactor": 0,
				"roughnessFactor": 1
			},
			"emissiveFactor": [0, 0, 0],
			"doubleSided": false,
			"name": "Low Poly River Environment Material"
		}
	],
	"meshes": [
		{
			"name": "mesh_M_Tree_5_1_27660tree010",
			"primitives": [
				{
					"attributes": {
						"POSITION": 0,
						"NORMAL": 1,
						"TEXCOORD_0": 2,
						"TANGENT": 3
					},
					"indices": 4,
					"material": 0,
					"mode": 4
				}
			]
		}
	],
	"nodes": [
		{
			"name": "UnityGlTF_root",
			"children": [
				2
			]
		},
		{
			"name": "node_tree010_-211960",
			"mesh": 0,
			"scale": [ 100, 100, 100]
		},
		{
			"name": "node_tree010_-212356",
			"children": [
				1
			],
			"matrix": [1, 0, 0, 0, 0, 1, 0, 0, 0, 0, 1, 0, 0, 0, 0, 1]
		}
	],
	"samplers": [
		{
			"magFilter": 9729,
			"minFilter": 9985,
			"wrapS": 10497,
			"wrapT": 10497
		}
	],
	"scenes": [
		{
			"name":"defaultScene",
			"nodes": [
				0
			]
		}
	],
	"scene": 0,
	"textures": [
		{
			"sampler": 0,
			"source": 0
		}
	]
}