{
	"asset": {
		"generator": "Unity 2018.4.2f1",
		"extras": {
			"exporterVersion" : "2.2.1"
		},
		"version": "2.0"
	},
	"accessors": [
		{
			"bufferView": 2,
			"byteOffset": 0,
			"componentType": 5126,
			"count": 1340,
			"max": [ 1.669616, 2.339154, 0.04574049 ],
			"min": [ -1.982984, -1.512251, -6.383928 ],
			"type": "VEC3"
		},
		{
			"bufferView": 2,
			"byteOffset": 16080,
			"componentType": 5126,
			"count": 1340,
			"max": [ 0.9996753, 0.9997304, 0.9999855 ],
			"min": [ -0.99971, -0.9993986, -0.9999616 ],
			"type": "VEC3"
		},
		{
			"bufferView": 1,
			"byteOffset": 0,
			"componentType": 5126,
			"count": 1340,
			"max": [ 0.9907227, 0.6928711 ],
			"min": [ 0.04492188, 0.01025391 ],
			"type": "VEC2"
		},
		{
			"bufferView": 1,
			"byteOffset": 10720,
			"componentType": 5126,
			"count": 1340,
			"max": [ 0.9902344, 0.9956818 ],
			"min": [ 0.004318237, 0.004394531 ],
			"type": "VEC2"
		},
		{
			"bufferView": 1,
			"byteOffset": 21440,
			"componentType": 5126,
			"count": 1340,
			"max": [ 0.9873047, 0.9921875 ],
			"min": [ 0.0078125, 0.008789063 ],
			"type": "VEC2"
		},
		{
			"bufferView": 3,
			"byteOffset": 0,
			"componentType": 5126,
			"count": 1340,
			"max": [ 1, 1, 0.9883222, 1 ],
			"min": [ -1, -1, -1, -1 ],
			"type": "VEC4"
		},
		{
			"bufferView": 0,
			"byteOffset": 0,
			"componentType": 5123,
			"count": 1524,
			"max": [ 1339 ],
			"min": [ 0 ],
			"type": "SCALAR"
		}
	],
	"buffers": [
		{
			"byteLength": 88808,
			"uri": "tree004.bin"
		}
	],
	"bufferViews": [
		{
			"buffer": 0,
			"byteLength": 3048,
			"target": 34963,
			"byteOffset": 85760
		},
		{
			"buffer": 0,
			"byteLength": 32160,
			"target": 34962,
			"byteStride": 8,
			"byteOffset": 0
		},
		{
			"buffer": 0,
			"byteLength": 32160,
			"target": 34962,
			"byteStride": 12,
			"byteOffset": 32160
		},
		{
			"buffer": 0,
			"byteLength": 21440,
			"target": 34962,
			"byteStride": 16,
			"byteOffset": 64320
		}
	],
	"images": [
		{
			"uri": "TropicalIsland01Diffuse.jpg"
		}
	],
	"materials": [
		{
			"pbrMetallicRoughness": {
				"baseColorTexture" : {
					"index" : 0,
					"texCoord" : 0
				},
				"baseColorFactor": [0.8, 0.8, 0.8, 1],
				"metallicFactor": 0,
				"roughnessFactor": 1
			},
			"emissiveFactor": [0, 0, 0],
			"doubleSided": false,
			"name": "TropicalIsland01Mat"
		}
	],
	"meshes": [
		{
			"name": "mesh_Palmtree03_27718Palmtree03",
			"primitives": [
				{
					"attributes": {
						"POSITION": 0,
						"NORMAL": 1,
						"TEXCOORD_0": 2,
						"TEXCOORD_1": 3,
						"TEXCOORD_2": 4,
						"TANGENT": 5
					},
					"indices": 6,
					"material": 0,
					"mode": 4
				}
			]
		}
	],
	"nodes": [
		{
			"name": "UnityGlTF_root",
			"children": [
				2
			]
		},
		{
			"name": "node_Palmtree03_-180380",
			"mesh": 0,
			"rotation": [-0.7071068, 0, 0, -0.7071068]
		},
		{
			"name": "node_tree004_-181120",
			"children": [
				1
			],
			"matrix": [1, 0, 0, 0, 0, 1, 0, 0, 0, 0, 1, 0, 0, 0, 0, 1]
		}
	],
	"samplers": [
		{
			"magFilter": 9729,
			"minFilter": 9985,
			"wrapS": 10497,
			"wrapT": 10497
		}
	],
	"scenes": [
		{
			"name":"defaultScene",
			"nodes": [
				0
			]
		}
	],
	"scene": 0,
	"textures": [
		{
			"sampler": 0,
			"source": 0
		}
	]
}