{
	"asset": {
		"generator": "Unity 2018.4.2f1",
		"extras": {
			"exporterVersion" : "2.2.1"
		},
		"version": "2.0"
	},
	"accessors": [
		{
			"bufferView": 2,
			"byteOffset": 0,
			"componentType": 5126,
			"count": 1224,
			"max": [ 1.504372, 1.313843, 0.1932059 ],
			"min": [ -1.787102, -1.760247, -4.150625 ],
			"type": "VEC3"
		},
		{
			"bufferView": 2,
			"byteOffset": 14688,
			"componentType": 5126,
			"count": 1224,
			"max": [ 0.9956067, 1, 0.9981303 ],
			"min": [ -0.9998928, -1, -0.994472 ],
			"type": "VEC3"
		},
		{
			"bufferView": 1,
			"byteOffset": 0,
			"componentType": 5126,
			"count": 1224,
			"max": [ 0.1450195, 0.2827148 ],
			"min": [ 0.003126144, 0.2792969 ],
			"type": "VEC2"
		},
		{
			"bufferView": 1,
			"byteOffset": 9792,
			"componentType": 5126,
			"count": 1224,
			"max": [ 0.9912109, 0.9914322 ],
			"min": [ 0.00856781, 0.008789063 ],
			"type": "VEC2"
		},
		{
			"bufferView": 3,
			"byteOffset": 0,
			"componentType": 5126,
			"count": 1224,
			"max": [ 1, 0, 0, 1 ],
			"min": [ 1, 0, 0, 1 ],
			"type": "VEC4"
		},
		{
			"bufferView": 0,
			"byteOffset": 0,
			"componentType": 5123,
			"count": 1452,
			"max": [ 1223 ],
			"min": [ 0 ],
			"type": "SCALAR"
		}
	],
	"buffers": [
		{
			"byteLength": 71448,
			"uri": "tree001.bin"
		}
	],
	"bufferViews": [
		{
			"buffer": 0,
			"byteLength": 2904,
			"target": 34963,
			"byteOffset": 68544
		},
		{
			"buffer": 0,
			"byteLength": 19584,
			"target": 34962,
			"byteStride": 8,
			"byteOffset": 0
		},
		{
			"buffer": 0,
			"byteLength": 29376,
			"target": 34962,
			"byteStride": 12,
			"byteOffset": 19584
		},
		{
			"buffer": 0,
			"byteLength": 19584,
			"target": 34962,
			"byteStride": 16,
			"byteOffset": 48960
		}
	],
	"images": [
		{
			"uri": "T_PolygonFarm_01_A.jpg"
		}
	],
	"materials": [
		{
			"pbrMetallicRoughness": {
				"baseColorTexture" : {
					"index" : 0,
					"texCoord" : 0
				},
				"baseColorFactor": [1, 1, 1, 1],
				"metallicFactor": 0,
				"roughnessFactor": 1
			},
			"emissiveFactor": [0, 0, 0],
			"doubleSided": false,
			"name": "Mat_PolygonFarm_01_A"
		}
	],
	"meshes": [
		{
			"name": "mesh_SM_Env_Tree_Cherry_01_3_27824tree001",
			"primitives": [
				{
					"attributes": {
						"POSITION": 0,
						"NORMAL": 1,
						"TEXCOORD_0": 2,
						"TEXCOORD_1": 3,
						"TANGENT": 4
					},
					"indices": 5,
					"material": 0,
					"mode": 4
				}
			]
		}
	],
	"nodes": [
		{
			"name": "UnityGlTF_root",
			"children": [
				2
			]
		},
		{
			"name": "node_tree001_-123288",
			"mesh": 0,
			"rotation": [-0.7071068, 0, 0, -0.7071068]
		},
		{
			"name": "node_tree001_-136668",
			"children": [
				1
			],
			"matrix": [1, 0, 0, 0, 0, 1, 0, 0, 0, 0, 1, 0, 0, 0, 0, 1]
		}
	],
	"samplers": [
		{
			"magFilter": 9729,
			"minFilter": 9985,
			"wrapS": 10497,
			"wrapT": 10497
		}
	],
	"scenes": [
		{
			"name":"defaultScene",
			"nodes": [
				0
			]
		}
	],
	"scene": 0,
	"textures": [
		{
			"sampler": 0,
			"source": 0
		}
	]
}