{
	"asset": {
		"generator": "Unity 2018.4.2f1",
		"extras": {
			"exporterVersion" : "2.2.1"
		},
		"version": "2.0"
	},
	"accessors": [
		{
			"bufferView": 2,
			"byteOffset": 0,
			"componentType": 5126,
			"count": 2552,
			"max": [ 1.915369, 5.159577, 1.901522 ],
			"min": [ -1.915369, -5.159577, -1.901522 ],
			"type": "VEC3"
		},
		{
			"bufferView": 2,
			"byteOffset": 30624,
			"componentType": 5126,
			"count": 2552,
			"max": [ 0.9999175, 1, 0.999229 ],
			"min": [ -0.9997597, -1, -0.9991134 ],
			"type": "VEC3"
		},
		{
			"bufferView": 1,
			"byteOffset": 0,
			"componentType": 5126,
			"count": 2552,
			"max": [ 0.998999, 0.998999 ],
			"min": [ 0.001001, 0.001001 ],
			"type": "VEC2"
		},
		{
			"bufferView": 3,
			"byteOffset": 0,
			"componentType": 5126,
			"count": 2552,
			"max": [ 0.999529, 0.8305962, 0.9995199, 1 ],
			"min": [ -0.9994996, -0.9169898, -0.9994971, -1 ],
			"type": "VEC4"
		},
		{
			"bufferView": 0,
			"byteOffset": 0,
			"componentType": 5123,
			"count": 132,
			"max": [ 79 ],
			"min": [ 0 ],
			"type": "SCALAR"
		},
		{
			"bufferView": 0,
			"byteOffset": 264,
			"componentType": 5123,
			"count": 3816,
			"max": [ 2551 ],
			"min": [ 80 ],
			"type": "SCALAR"
		}
	],
	"buffers": [
		{
			"byteLength": 130392,
			"uri": "tree007.bin"
		}
	],
	"bufferViews": [
		{
			"buffer": 0,
			"byteLength": 7896,
			"target": 34963,
			"byteOffset": 122496
		},
		{
			"buffer": 0,
			"byteLength": 20416,
			"target": 34962,
			"byteStride": 8,
			"byteOffset": 0
		},
		{
			"buffer": 0,
			"byteLength": 61248,
			"target": 34962,
			"byteStride": 12,
			"byteOffset": 20416
		},
		{
			"buffer": 0,
			"byteLength": 40832,
			"target": 34962,
			"byteStride": 16,
			"byteOffset": 81664
		}
	],
	"materials": [
		{
			"pbrMetallicRoughness": {
				"baseColorFactor": [0.57, 0.34, 0.16, 1],
				"metallicFactor": 0,
				"roughnessFactor": 1
			},
			"emissiveFactor": [0, 0, 0],
			"doubleSided": false,
			"name": "_Bridge1SG1"
		},
		{
			"pbrMetallicRoughness": {
				"baseColorFactor": [0.3220915, 0.6901961, 0.2760784, 1],
				"metallicFactor": 0,
				"roughnessFactor": 1
			},
			"emissiveFactor": [0, 0, 0],
			"doubleSided": false,
			"name": "Green"
		}
	],
	"meshes": [
		{
			"name": "mesh__Tree3_1_001_27588tree007",
			"primitives": [
				{
					"attributes": {
						"POSITION": 0,
						"NORMAL": 1,
						"TEXCOORD_0": 2,
						"TANGENT": 3
					},
					"indices": 4,
					"material": 0,
					"mode": 4
				},
				{
					"attributes": {
						"POSITION": 0,
						"NORMAL": 1,
						"TEXCOORD_0": 2,
						"TANGENT": 3
					},
					"indices": 5,
					"material": 1,
					"mode": 4
				}
			]
		}
	],
	"nodes": [
		{
			"name": "UnityGlTF_root",
			"children": [
				1
			]
		},
		{
			"name": "node_tree007_-199408",
			"children": [
				2
			],
			"matrix": [1, 0, 0, 0, 0, 1, 0, 0, 0, 0, 1, 0, 0, 0, 0, 1]
		},
		{
			"name": "node_tree007_-198476",
			"mesh": 0,
			"translation": [ 0, 4.05, 0],
			"scale": [ 0.79333, 0.79333, 0.79333],
			"rotation": [1.457807E-16, 0, 4.251396E-17, 1]
		}
	],
	"scenes": [
		{
			"name":"defaultScene",
			"nodes": [
				0
			]
		}
	],
	"scene": 0
}